; NON-PLATED HOLES START AT T1
; THROUGH (PLATED) HOLES START AT T100
M48
INCH
T100C0.036000
T101C0.015748
T102C0.027559
T103C0.038000
%
T100
X010891Y001928
X008891Y008928
X011891Y001928
X001891Y008928
X009891Y001928
X010891Y008928
X002891Y001928
X011891Y008928
X003891Y001928
X009891Y008928
X012891Y001928
X002891Y008928
X003891Y008928
X012891Y008928
X004891Y001928
X005891Y001928
X004891Y008928
X005891Y008928
X006891Y001928
X007891Y001928
X008891Y001928
X006891Y008928
X001891Y001928
X007891Y008928
T101
X011200Y009699
X011680Y006099
X015760Y004659
X020320Y001779
X009280Y008259
X011200Y008019
X010720Y006579
X018880Y006579
X012640Y009939
T102
X022678Y009928
X019891Y000928
X016103Y000928
X022891Y000928
X018891Y009928
X019103Y000928
X016678Y009928
X021891Y009928
X022103Y000928
X016891Y000928
X019678Y009928
X015891Y009928
T103
X022891Y006928
X022891Y004928
X022891Y005928
T00
M30
