G04 MADE WITH FRITZING*
G04 WWW.FRITZING.ORG*
G04 DOUBLE SIDED*
G04 HOLES PLATED*
G04 CONTOUR ON CENTER OF CONTOUR VECTOR*
%ASAXBY*%
%FSLAX23Y23*%
%MOIN*%
%OFA0B0*%
%SFA1.0B1.0*%
%ADD10C,0.057000*%
%ADD11C,0.078000*%
%ADD12C,0.039370*%
%ADD13R,0.078000X0.078000*%
%ADD14C,0.024000*%
%LNCOPPER1*%
G90*
G70*
G54D10*
X2189Y993D03*
X2268Y993D03*
X2189Y993D03*
X2268Y993D03*
X1989Y93D03*
X1910Y93D03*
X1989Y93D03*
X1910Y93D03*
X1589Y993D03*
X1668Y993D03*
X1589Y993D03*
X1668Y993D03*
X2289Y93D03*
X2210Y93D03*
X2289Y93D03*
X2210Y93D03*
X1889Y993D03*
X1968Y993D03*
X1889Y993D03*
X1968Y993D03*
X1689Y93D03*
X1610Y93D03*
X1689Y93D03*
X1610Y93D03*
G54D11*
X2289Y693D03*
X2289Y593D03*
X2289Y493D03*
G54D12*
X1120Y802D03*
X2032Y178D03*
X928Y826D03*
X1576Y466D03*
X1168Y610D03*
X1264Y994D03*
X1120Y970D03*
X1072Y658D03*
X1888Y658D03*
G54D13*
X2289Y693D03*
G54D14*
X1132Y788D02*
X1389Y493D01*
D02*
X1389Y493D02*
X2015Y186D01*
D02*
X911Y834D02*
X880Y850D01*
D02*
X880Y850D02*
X1192Y850D01*
D02*
X1192Y850D02*
X1563Y479D01*
D02*
X1179Y595D02*
X1312Y418D01*
D02*
X1312Y418D02*
X1670Y109D01*
D02*
X2275Y114D02*
X2248Y154D01*
D02*
X2248Y154D02*
X2013Y99D01*
D02*
X2189Y968D02*
X2189Y592D01*
D02*
X2189Y592D02*
X2259Y593D01*
D02*
X1589Y968D02*
X1590Y892D01*
D02*
X1590Y892D02*
X1866Y985D01*
D02*
X1280Y984D02*
X1590Y793D01*
D02*
X1590Y793D02*
X1989Y892D01*
D02*
X1989Y892D02*
X1973Y968D01*
D02*
X1102Y965D02*
X832Y898D01*
D02*
X832Y898D02*
X832Y778D01*
D02*
X832Y778D02*
X1055Y666D01*
D02*
X1904Y647D02*
X2248Y418D01*
D02*
X2248Y418D02*
X2368Y442D01*
D02*
X2368Y442D02*
X2368Y754D01*
D02*
X2368Y754D02*
X2277Y970D01*
G04 End of Copper1*
M02*