<?xml version="1.0" encoding="utf-8"?>
<!-- Generator: Adobe Illustrator 16.0.5, SVG Export Plug-In . SVG Version: 6.00 Build 0)  -->
<!DOCTYPE svg PUBLIC "-//W3C//DTD SVG 1.1//EN" "http://www.w3.org/Graphics/SVG/1.1/DTD/svg11.dtd">
<svg version="1.1" id="Layer_1" xmlns="http://www.w3.org/2000/svg" xmlns:xlink="http://www.w3.org/1999/xlink" x="0px" y="0px"
	 width="227.844px" height="423.984px" viewBox="0 0 227.844 423.984" enable-background="new 0 0 227.844 423.984"
	 xml:space="preserve">
<rect x="-1.161" y="-0.998" fill-rule="evenodd" clip-rule="evenodd" fill="#060606" width="232.963" height="424.982"/>
<rect x="0.193" y="271.66" fill-rule="evenodd" clip-rule="evenodd" fill="#555555" width="232.479" height="152.325"/>
<path fill-rule="evenodd" clip-rule="evenodd" fill="#1C1C1C" d="M-12.674,241.118"/>
<path fill-rule="evenodd" clip-rule="evenodd" fill="#1C1C1C" d="M7.714,235.401c2.551,0.212,3.029,2.353,3.039,4.444
	c0.016,3.324-0.202,6.649-0.194,9.975c0.005,2.069,0.555,4.076,2.574,5.068c2.152,1.057,3.278-0.778,4.636-1.965
	c4.035-3.528,7.405-2.897,9.728,2.332c2.151,4.845,3.541,10.021,5.472,14.971c2.608,6.69,3.758,7.046,9.581,3.312
	c1.994-1.279,4.102-2.175,6.422-2.621c3.293-0.633,5.043-2.992,5.014-6.003c-0.073-7.495-1.524-14.484-8.312-19.278
	c-3.503-2.476-6.791-5.333-9.843-8.355c-6.037-5.978-5.966-13.638-4.318-21.053c1.601-7.201,0.668-13.446-2.19-20.261
	c-2.974-7.089-2.246-14.97-0.062-22.492c2.267-7.804,5.258-15.404,6.586-23.472c0.443-0.438,0.961-0.562,1.542-0.363
	c1.64,3.146,3.001,6.345,1.962,10.009c-0.422,2.263-1.603,4.303-1.709,6.685c-0.085,1.909-1.228,4.045,0.801,5.386
	c1.876,1.241,3.741,0.223,5.663-0.634c0.836-0.372,1.05-1.086,1.794-1.334c4.508-3.379,5.5-9.076,8.816-13.265
	c0.596-0.055,1.177-0.074,1.77-0.079c4.466-1.287,4.796,1.682,4.814,4.828c-5.629,4.715-7.647,12.215-13.636,16.523
	c-3.267,2.35-4.677,5.536-3.386,9.58c0.305,0.953,0.606,2.002,1.758,2.203c1.397,0.244,2.083-0.762,2.642-1.821
	c0.471-0.893,0.729-1.871,0.744-2.87c0.062-4.267,2.009-7.235,5.942-8.927c3.093-1.329,4.761-3.557,4.135-7.06
	c-0.401-2.248,0.869-2.963,2.761-3.201c5.984,3.712,6.58,7.288,2.163,12.506c-0.639,0.754-1.189,1.585-1.897,2.278
	c-0.46,0.303-0.929,0.599-1.395,0.891c-6.174,1.324-6.422,1.405-4.322,7.814c0.904,2.759-0.531,3.856-1.933,5.366
	c-0.296,0.489-0.719,0.821-1.237,1.039c-2.297,1.104-4.216,2.493-5.311,4.992c-1.626,3.713-5.464,5.202-8.47,7.386
	c-1.48,1.076-2.254,1.871-2.59,3.607c-1.297,6.712-2.953,13.386,0.929,19.86c1.093,1.822,1.813,3.949,4.422,4.102
	c0.34,0.02,0.756,0.082,0.915,0.339c4.645,7.458,13.919,8.373,19.834,14.071c4.831,4.653,4.104,3.591,0.28,7.327
	c-1.931,1.888-3.458,3.901-1.994,6.955c0.892,1.859,0.861,4.065,1.234,6.105c1.176,6.419-2.299,11.647-8.651,13.466
	c-7.311,2.093-7.319,2.093-7.469,10.034c-0.025,1.339-0.333,2.546-1.527,3.257c-1.354,0.808-2.565,0.185-3.642-0.679
	c-1.577-1.267-2.704-2.926-3.846-4.562c-0.277-2.873-1.421-5.397-3.567-7.286c-1.544-1.36-1.831-2.899-1.8-4.798
	c0.037-2.307-1.842-3.759-2.825-5.601c-0.479-1.73-0.818-3.678-1.878-4.995c-1.425-1.773-2.51-4.734-5.513-4.1
	c-3.117,0.659-4.871,3.254-5.505,6.147c-2.339,10.668-3.128,21.431-1.789,32.35c0.322,2.627,1.044,5.166,2.065,7.354
	c1.034,2.211,1.392,4.323,1.617,6.604c0.071,2.095,0.665,4.111,0.606,6.24c-0.078,2.876-1.374,4.454-4.165,4.841
	c-3.457,0.092-5.729-1.362-6.613-4.771c0.297-4.879-1.538-9.309-2.956-13.827"/>
<path fill-rule="evenodd" clip-rule="evenodd" fill="#121212" d="M36.839,149.991c-0.331,0.004-0.662,0.008-0.993,0.013
	c-0.001-1.668-0.003-3.337-0.004-5.006c0.335-2.333,0.671-4.665,1.006-6.998c1.737-2.982,2.236-6.431,3.817-9.535
	c2.492-4.895,7.009-7.053,11.242-9.642c2.264-1.385,3.947,1.085,5.81,1.474c-4.6-2.156-5.339-5.067-2.627-10.845
	c0.854-1.822,1.891-3.484,3.754-4.453l0,0c5.996-3.732,5.996-3.732,11.03,0.077c-2.462-2.241-6.601-2.813-7.04-7.07
	c-1.385-2.886-0.638-5.502,1.012-8.004c-0.023-0.244-0.047-0.488-0.07-0.732c4.231-6.752,10.174-11.09,18.009-12.768
	c4.23,0.155,5.951-3.493,8.635-5.688c4.69-2.38,5.968-5.915,4.072-10.87c-0.696-1.821,0-3.942-0.035-5.933
	c-0.061-3.442,2.381-5.516,6.406-5.613c3.228-0.079,5.14,2.125,5.327,4.908c0.344,5.102,1.101,10.453-0.473,15.313
	c-1.419,4.383-1.45,7.846,1.689,11.286c0.748,0.82,1.153,2.008,1.767,2.996c0.521,0.701,1.067,1.379,1.662,2.021
	c2.078,1.487,1.987,3.406,1.097,5.479c-1.568,1.56-3.439,1.55-4.92,0.227c-2.761-2.469-6.334-4.253-8.293-7.297
	c-1.863-2.896-4.787-3.944-6.905-3.177c-4.192,1.519-8.781,0.534-12.937,3.654c-3.213,2.414-7.343,3.61-9.647,7.411
	c-2.299,3.791-2.116,6.787,1.666,8.578c3.739,1.77,5.883,4.74,8.1,7.812c1.727,2.392,2.584,5.024,0.297,7.535
	c-2.426,2.664-4.954,1.197-7.353-0.194c-1.861-1.08-3.457-2.628-5.579-3.244c-0.819-0.237-1.725-0.249-2.15,0.677
	c-0.307,0.667,0.113,1.298,0.55,1.811c0.649,0.762,1.486,1.331,2.192,2.036c3.24,3.237,3.265,6.971,0.077,10.092
	c-4.902,4.8-7.114,5.106-13.39,1.852c-5.106-2.648-9.624-0.311-11.034,6.355c-0.944,4.469-4.229,8.223-3.747,13.121
	C38.91,148.177,38.501,150.071,36.839,149.991z"/>
<path fill-rule="evenodd" clip-rule="evenodd" fill="#060606" d="M42.681,251.891c-0.422,4.396-3.391,7.763-5.259,11.543
	c-0.903,1.828-3.217,0.455-3.815-1.239c-1.932-5.475-4.815-10.656-5.386-16.565c-0.199-2.06,0.013-4.151,1.919-5.355
	c2.123-1.342,3.851,0.109,5.356,1.403C38.719,244.447,42.902,246.594,42.681,251.891z"/>
<path fill-rule="evenodd" clip-rule="evenodd" fill="#0B0B0B" d="M211.844,33c-4.18-0.953-7.86-2.567-9.935-6.716
	c-1.643-3.284-4.619-3.377-7.749-2.842c-4.413,0.754-7.495-0.312-8.191-5.404c-0.462-3.385-3.279-3.851-6.048-3.924
	c-5.047-0.134-9.323,2.388-13.505,4.614c-6.56,3.493-12.543,4.694-20.315,2.563c-7.395-2.028-15.769-0.565-23.71-0.47
	c-2.847,0.035-5.646-0.033-8.396-0.751c-4.593-1.198-5.187-2.57-3.151-7.071c1.385,4.038,4.6,5.814,8.475,5.737
	c11.924-0.235,23.869,0.812,35.774-0.566c2.359-0.272,4.615-0.604,6.06-2.84c0.56-0.864,1.575-1.696,2.51-1.188
	c4.05,2.201,7.448-0.031,10.82-1.565c5.574-2.537,10.543-0.962,14.976,2.24c4.31,3.114,8.697,3.766,13.635,2.453
	c1.251-0.333,2.712-1.066,3.74,0.152c1.052,1.246-0.507,2.03-0.992,2.977c-1.337,2.608-0.444,4.875,1.145,6.931
	C208.506,29.298,210.217,31.116,211.844,33z"/>
<path fill-rule="evenodd" clip-rule="evenodd" fill="#050505" d="M214.844,40c3.7,4.076,6.33,8.764,8,14
	c2.208,2.641,2.098,5.865,2.287,9.021c0.221,3.673-2.423,5.75-5.04,6.785c-2.375,0.939-5.26-1.074-6.013-3.313
	c-2.107-6.271-7.734-8.533-12.327-12.02c-2.63-1.996-3.72-4.601-3.267-7.903c0.628-4.575-0.475-5.034-4.964-6.248
	c-5.405-1.462-9.474,1.77-14.168,2.654c-4.355,0.821-6.738,0.056-7.673-4.304c-1.325-6.184-7.993-8.837-12.964-4.956
	c-3.604,2.812-8.038,4.041-12.382,5.18c-2.565,0.672-4.453,1.6-4.89,4.442c-0.312,2.032-1.625,3.538-2.888,5.051
	c-2.372,2.844-4.176,5.98-5.258,9.554c-1.242,4.105-3.358,7.21-8.337,7.092c-1.457-0.034-2.89,0.732-4.352,1.047
	c-5.622,1.21-7.991,0.124-11.139-5.054c-0.046-1.017,0.534-1.609,1.373-2.026c2.655-5.685,1.293-11.037-1.427-16.231
	c-2.014-3.846-5.729-4.906-10.254-3.438c-2.702,0.877-5.701,4.388-8.051,1.98c-2.201-2.256,1.535-4.936,2.492-7.441
	c2.366-6.195,5.242-12.201,8.045-18.222c0.671-1.439,1.539-3.36,3.526-3.01c1.834,0.323,1.428,2.364,1.828,3.734
	c1.236,4.236,6.385,7.482,11.284,7.187c10.613-0.641,21.152-1.253,31.758,1.057c8.405,1.83,16.033-1.988,23.191-5.873
	c5.412-2.938,8.189-2.804,10.827,2.59c2.104,4.301,4.65,6.723,9.726,5.006c1.42-0.48,3.349-0.229,4.221,0.944
	C202.403,33.191,210.717,33.824,214.844,40z"/>
<path fill-rule="evenodd" clip-rule="evenodd" fill="#0B0B0B" d="M110.845,59.001c-0.001,0.666-0.001,1.333-0.001,1.999
	c1.284,4.705,3.737,6.301,7.901,4.375c3.94-1.822,7.516-1.107,11.159,0.34c2.808,1.115,5.601,2.274,8.68,1.891
	c4.949-0.617,9.133,0.99,12.996,3.95c2.163,1.656,4.705,3.199,7.227,1.007c2.514-2.186,1.203-4.945,0.099-7.366
	c-2.311-5.062-5.999-8.664-11.349-10.575c-5.674-2.026-7.805-7.041-5.742-12.755c0.686-1.898,2.282-2.696,3.879-3.002
	c5.255-1.004,9.812-3.602,14.481-5.943c4.807-2.41,9.05-0.766,10.753,4.296c2.028,6.028,3.176,6.529,9.582,5.208
	c3.29-0.678,6.306-1.987,9.292-3.339c2.47-1.117,4.67-1.133,7.104-0.101c2.403,1.02,3.416,2.606,2.693,5.153
	c-1.462,5.154-0.05,8.875,4.662,11.884c3.743,2.391,7.941,4.563,9.425,9.59c0.533,1.809,2.976,2.899,4.577,4.29
	c4.064,3.531,3.396,7.007-1.528,8.686c-4.271,1.455-5.07,2.889-3.384,7.595c1.35,3.767,1.254,7.461-2.291,9.24
	c-6.623,3.323-9.799,9.679-14.473,14.708c-1.927,2.072-3.806,4.201-6.744,4.869c-0.334-0.669-0.668-1.338-1.002-2.007
	c-3.333-1.728-0.77-3.934-0.486-5.947c0.584-1.794,1.463-3.729,3.368-3.994c3.547-0.492,3.54-3.195,3.612-5.483
	c0.096-3.073-1.839-4.97-4.83-5.784c-2.707-0.737-5.161-2.111-7.702-3.26c-2.894-1.308-3.019-3.328-1.311-5.717
	c5.359-7.496,13.533-9.514,21.875-11.109c1.421-0.271,3.072,0.327,3.937-1.362c0.333-0.652,0.04-1.336-0.465-1.809
	c-1.45-1.356-3.031-0.958-4.645-0.292c-5.313,2.192-12.047,0.344-14.865-4.383c-1.687-2.829-1.253-5.737,1.083-8.243
	c0.992-1.064,2.599-2.204,1.569-3.791c-1.18-1.818-3.081-0.862-4.496-0.14c-4.404,2.246-8.967,2.115-13.64,1.329
	c-1.264-0.213-2.921-0.805-3.571,0.711c-0.659,1.539,1.032,2.199,1.962,3.076c3.972,3.747,8.77,6.604,11.819,11.354
	c1.95,3.038,2.58,5.947,0.951,9.373c-1.386,2.913-2.543,5.857-2.418,9.35c0.111,3.076-5.242,6.274-8.79,5.115
	c-7.768-2.537-15.772-3.742-23.728-5.327c-1.804-0.36-3.867-1.624-3.867-4.88c-0.001-6.021-4.21-8.203-9.841-5.787
	c-2.688,1.153-5.307,0.869-6.814-1.687c-0.915-1.551-2.207-2.632-3.391-3.723c-1.683-1.55-4.134-1.609-6.117-0.525
	c-1.909,1.043-1.757,3.193-1.481,5.085c0.35,2.4,2.243,3.45,4.272,3.823c1.642,0.302,3.404,0.029,4.979,0.812
	c2.818,1.401,6.816,10.533,5.541,13.417c-1.18,2.667-3.371,4.312-6.619,3.581c-0.489-0.19-0.979-0.374-1.476-0.548
	c-3.444-5.907-10.768-5.333-15.415-9.229c-0.333-0.334-0.667-0.667-1-1.001c-3.04-4.206-3.492-8.551-1.972-13.643
	c1.822-6.101,1.091-12.577,0.92-18.88c-0.065-2.41-1.303-4.961-4.561-5.09c-3.531-0.141-5.741,1.396-5.838,5.066
	c-0.058,2.176-0.958,4.307-0.427,6.484c1.271,5.21-0.343,9.47-4.128,13.062c-2.677,2.246-4.957,5.204-8.995,5.001
	c-0.837-0.819-0.82-1.814-0.612-2.858c2.416-2.668,4.516-5.81,8.612-6.142c0.333-0.333,0.667-0.666,1-1
	c1.091-4.53,0.193-9.135,0.514-13.692c0.124-1.771-0.496-3.615,0.486-5.308c1.145-4.562,4.547-6.3,8.773-6.586
	c4.239-0.287,5.864,2.979,7.41,6.153C109.634,51.865,110.183,55.448,110.845,59.001z"/>
<path fill-rule="evenodd" clip-rule="evenodd" fill="#050505" d="M89.844,69c-1.284,3.383-4.798,4.534-7.003,6.995
	c-5.606,2.814-11.612,4.916-15.867,9.995c-1.095,1.308-2.209,2.574-3.128,4.011c0,0,0,0,0,0.001
	c-3.181,0.554-5.453,2.132-6.678,5.283c-4.201,10.812-10.617,20.219-18.702,28.473c-1.989,2.031-3.105,4.003-2.984,6.985
	c0.298,7.352-3.707,13.737-5.118,20.731c-0.264,1.307-1.264,2.534-2.887,2.149c-1.368-0.323-1.5-1.694-1.522-2.853
	c-0.043-2.161-0.297-4.398,0.147-6.474c1.985-9.26,3.521-18.523,3.266-28.067c-0.237-8.882,3.35-17.271,3.87-26.104
	c0.177-2.989,0.573-5.94,0.238-8.951c-0.484-4.356,1.039-8.245,3.379-11.769c3.114-4.688,7.771-5.332,14.203-2.228
	c8.486,4.097,9.298,3.689,16.513-2.238c5.136-4.22,9.027-9.763,14.839-13.242c4.055-2.428,5.837-1.926,6.889,2.856
	C90.344,59.314,89.694,64.183,89.844,69z"/>
<path fill-rule="evenodd" clip-rule="evenodd" fill="#0F0F0F" d="M58.844,104.999c-0.807,1.453-1.772,2.841-2.391,4.369
	c-2.369,5.853-1.599,7.29,4.577,8.913c1.635,0.43,3.354,0.825,3.759,2.786c0.345,1.677-0.615,2.881-1.936,3.748
	c-1.595,1.048-3.173,0.754-4.645-0.321c-2.149-1.571-3.479-4.967-7.04-3.453c-4.039,1.718-7.683,4.005-9.816,8.084
	c-1.538,2.939-2.303,6.272-4.505,8.875c1.19-7.693,4.246-14.213,11.276-18.347c2.702-1.589,4.229-4.042,4.873-7.164
	C53.697,109.097,55.4,106.328,58.844,104.999z"/>
<path fill-rule="evenodd" clip-rule="evenodd" fill="#0F0F0F" d="M62.834,98.006c2.48,3.327,6.658,4.173,9.701,6.653
	c1.202,0.98,3.079,2.276,1.579,3.991c-1.188,1.358-2.939,0.085-3.909-0.873c-3.287-3.245-6.768-5.13-11.361-2.778
	C60.428,102.813,62.531,100.923,62.834,98.006z"/>
<path fill-rule="evenodd" clip-rule="evenodd" fill="#0A0A0A" d="M91.844,49c-0.395,6.33,0.932,12.751-1,19
	C91.238,61.67,89.912,55.249,91.844,49z"/>
<path fill-rule="evenodd" clip-rule="evenodd" fill="#2B2B2B" d="M46.844,172c-2.02,1.102-4.005,2.271-6.064,3.29
	c-4.291,2.123-7.127,0.241-6.669-4.618c0.307-3.247,1.14-6.443,1.737-9.663c2.61-7.251,2.666-15.057,4.863-22.401
	c0.904-3.021,2.111-5.792,4.134-8.314c2.694-3.361,4.987-4.326,8.41-2.328c2.508,1.463,4.963,3.536,7.902,2.2
	c3.622-1.646,6.589-4.441,8.159-8.152c2.996-7.082,6.095-7.749,11.187-2.086c0.862,0.959,1.384,2.326,2.963,2.501
	c1.175-1.081,0.458-2.225-0.068-3.148c-1.67-2.932-2.873-5.954-3.593-9.303c-0.935-4.342-4.609-6.94-7.752-9.607
	c-5.337-4.53-5.736-7.857-0.739-12.283c5.955-5.276,13.334-7.18,20.922-8.125c2.005-0.25,4.636,0.582,6.118,2.473
	c5.392,6.876,12.858,9.561,21.102,10.797c2.469,0.908,4.258,2.892,6.544,4.122c1.736,0.934,3.678,1.767,5.246,0.9
	c6.345-3.507,10.727-0.916,14.533,4.105c1.674,1.527,0.743,3.222,0.311,4.879c-1.754,2.229-3.487,0.918-5.251-0.016
	c-3.158-1.672-6.369-2.801-10.115-2.517c-6.267,0.476-11.151-3.586-16.422-5.97c-6.085-2.753-12.604-4.822-17.954-9.139
	c-0.873-0.704-2.405-0.284-3.644-0.074c-2.96,0.502-5.799,1.485-8.642,2.369c-4.192,1.304-5.452,4.83-2.934,8.604
	c3.669,5.501,4.823,12.256,9.524,17.37c1.887,2.052,2.065,6.219,0.622,9.527c-0.812,2.19-1.947,3.931-4.081,5.304
	c-2.732,1.759-4.997,4.202-6.816,7.024c-0.776,1.206-1.649,2.779-3.621,2.452c-7.374-4.843-9.065-4.217-11.21,4.444
	c-1.449,5.854-5.432,9.19-10.7,11.385v-0.001C51.618,162.348,51.216,168.309,46.844,172z"/>
<path fill-rule="evenodd" clip-rule="evenodd" fill="#1E1E1E" d="M118.856,94.979c-6.581-1.43-12.997-3.577-17.89-8.27
	c-7.913-7.59-22.979-3.914-29.13,3.573c-2.421,2.946-2.935,6.046,0.232,8.237c7.402,5.121,9.518,13.814,14.588,20.479
	c1.005,1.321,1.761,2.914,1.66,4.625c-0.187,3.163-2.042,5.597-4.927,6.168c-2.932,0.582-2.146-2.656-2.944-4.262
	c-0.734-1.479-1.388-3.03-2.34-4.361c-2.013-2.812-4.265-2.937-6.468-0.147c-1.955,2.476-3.892,4.966-5.8,7.478
	c-2.959,3.896-6.642,4.378-11.083,2.804c-7.393-2.619-11.229-0.344-12.832,7.724c-1.262,6.351-1.756,12.869-4.566,18.838
	c-0.495,1.052-1.006,2.097-1.51,3.145c0.33-3.673,0.661-7.345,0.991-11.018c0.322-6.638,2.862-12.673,5.482-18.59
	c2.817-6.366,7.268-7.798,13.366-4.39c3.569,1.994,6.323,1.249,9.088-1.121c3.453-2.961,3.189-5.936-0.729-8.411
	c-0.701-0.443-1.474-0.775-2.222-1.142c-2.937-1.439-3.86-3.7-2.256-6.56c1.59-2.834,4.284-3.207,6.913-1.812
	c2.33,1.236,4.334,3.077,6.515,4.604c1.378,0.965,2.885,2.074,4.467,0.519c1.431-1.406,0.973-3.08,0.067-4.598
	c-1.817-3.049-4.172-5.517-7.275-7.385c-5.277-3.178-5.951-6.474-2.072-11.381c4.38-5.542,10.624-8.316,17.177-10.436
	c0.308-0.1,0.711,0.046,0.987-0.09c7.266-3.553,12.443-2.006,16.324,5.5c1.376,2.661,4.634,4.771,8.172,5.298
	c3.533-0.154,7.176-0.577,8.958,3.63C119.587,94.144,119.266,94.593,118.856,94.979z"/>
<path fill-rule="evenodd" clip-rule="evenodd" fill="#2D2D2D" d="M-8.84,251.834"/>
<path fill-rule="evenodd" clip-rule="evenodd" fill="#2D2D2D" d="M-47.448,245.634"/>
<path fill-rule="evenodd" clip-rule="evenodd" fill="#222222" d="M38.853,290.989c0.741,0.669,1.531,1.292,2.214,2.017
	c2.345,2.486,3.723,1.351,3.591-1.365c-0.33-6.785,3.467-9.331,9.377-10.71c5.437-1.268,7.631-5.281,6.555-12.177
	c-0.786-5.031-1.987-9.683,2.402-13.879c1.755-1.678-0.096-3.471-1.715-4.401c-4.453-2.56-8.433-5.801-13.392-7.665
	c-12.227-4.596-18.15-22.522-11.503-33.839c0.486-0.828,1.194-1.67,2.01-2.137c4.134-2.37,7.626-5.233,9.529-9.829
	c0.849-2.047,2.815-3.237,4.923-4.003c3.856,2.77-1.46,3.609-1.177,5.624c-1.148,4.31-3.796,7.405-7.362,10.065
	c-2.979,2.222-4.463,5.925-7.152,8.528c-0.475,0.46-0.747,1.07-0.496,1.797c3.298,9.519,5.573,19.843,17.689,22.378
	c3.082,1.359,5.22,5.021,9.344,3.898c3.087,2.136,5.447,5.164,9.679,5.866c2.745,0.456,1.928,3.514,0.3,4.46
	c-7.168,4.167-6.82,9.998-6.063,17.319c0.618,5.985-2.194,12.367-9.021,14.965c-4.907,1.867-7.713,4.962-7.359,10.443
	c0.063,0.994-0.346,1.956-0.659,2.898c-1.473,4.424-3.946,4.945-7.461,1.616c-1.601-1.518-2.516-3.479-3.585-5.344
	C39.611,295.31,35.703,293.507,38.853,290.989z"/>
<path fill-rule="evenodd" clip-rule="evenodd" fill="#2D2D2D" d="M49.847,198c0.999-1.666,1.998-3.333,2.997-4.999
	c1.706-2.324,3.677-4.156,2.34-7.864c-1.104-3.062,2.735-4.304,4.673-6.126c0.329-0.004,0.658-0.009,0.987-0.015
	c6.906-1.234,5.361-6.37,5.053-10.942c3.829,0.451,9.341,5.989,9.108,9.143c-0.22,2.998-4.143,5.74-8.575,5.995
	c-3.568,0.205-5.734,2.675-4.824,6.171c0.944,3.627-0.538,5.449-3.417,7.314c-2.204,1.428-6.268,2.374-3.982,6.703
	c2.053,6.688,1.736,7.33-4.946,10.021c-5.953,2.398-7.005,6.344-3.015,11.401c0.714,0.904,1.605,1.642,2.02,2.795
	c2.461,6.849,7.734,11.228,13.392,15.313c1.181,0.853,3.557,1.464,1.943,3.876c-0.254,0.084-0.499,0.162-0.744,0.24
	c-3.569-0.076-6.224-2.199-9.009-4.03c-6.829-3.604-12.078-8.645-15.5-15.729c-2.594-5.368-2.146-10.385,0.23-15.515
	c0.604-1.303,1.963-1.379,3.085-1.95c3.159-1.608,6.551-3.169,6.586-7.709C48.258,200.733,49.229,199.342,49.847,198z"/>
<path fill-rule="evenodd" clip-rule="evenodd" fill="#141414" d="M61.839,167.002c1.516,7.439,1.244,8.104-5.644,11.56
	c-2.515,1.262-3.822,3.093-3.755,5.889c0.098,4.045-2.17,6.871-4.91,9.405c-2.45,2.266-4.161,1.358-5.251-1.454
	c-3.211-8.29-2.377-11.529,4.51-17.372c3.232-2.742,5.637-6.072,7.252-9.976c1.096-2.646,2.766-4.132,5.803-3.053
	C62.305,162.952,62.026,164.995,61.839,167.002z"/>
<path fill-rule="evenodd" clip-rule="evenodd" fill="#2A2A2A" d="M9.854,323c0.819,2.378,2.532,3.642,4.977,3.996
	c4.595-2.543,3.414-6.248,2.012-9.998c-4.208-10.433-4.806-21.376-3.892-32.354c0.612-7.364,1.061-14.942,5.337-21.481
	c1.207-1.846,2.354-3.823,4.957-3.526c2.36,0.27,3.187,2.221,3.803,4.161c1.011,3.177,3.302,5.818,3.797,9.202
	c1.212,1.123,0.967,2.604,0.99,4.016c-2.235,2.881-3.604,1.596-5.074-0.861c-0.858-1.435-2.021-2.988-4.213-2.36
	c-1.968,0.564-2.998,1.552-3.627,3.825c-1.414,5.116-2.692,10.176-2.855,15.52c-0.115,3.762,1.817,6.962,2.415,10.52
	c-0.425,7.158,3.281,13.438,4.284,20.303c0.434,2.964-0.179,5.624-2.555,6.814c-3.133,1.572-6.811,1.676-9.799-0.779
	c-2.179-1.79-4.287-3.885-2.271-7.138C8.744,322.492,9.315,322.539,9.854,323z"/>
<path fill-rule="evenodd" clip-rule="evenodd" fill="#222222" d="M61.839,167.002c-1.156-1.471-1.767-3.159-1.995-5.001
	c-0.307-3.031-2.295-3.962-4.998-3.998c4.647-5.242,8.447-10.849,9.87-17.971c0.81-4.051,7.123-6.242,10.883-4.287
	c2.391,1.243,1.536,3.335,1.248,5.257c0.066,0.229,0.133,0.456,0.199,0.685c-0.521,5.898-5.404,9.174-9.172,12.091
	c-3.296,2.551-3.427,4.703-3.173,7.813c0.135,1.657,0.814,3.179,1.479,4.689c0.326,0.954,0.416,1.881-0.314,2.712
	c1.808,7.576,1.058,9.071-5.021,10.004C66.741,173.199,66.847,171.938,61.839,167.002z"/>
<path fill-rule="evenodd" clip-rule="evenodd" fill="#262626" d="M30.83,277.024c0.005-1.342,0.01-2.684,0.014-4.025
	c3.69,5.542,6.058,11.674,8.009,17.99c0.666,2.002,1.333,4.004,1.999,6.007c-0.111,0.25-0.224,0.501-0.335,0.752
	c-2.271,1.195-2.896-0.724-3.725-2.054c-1.237-1.985-1.692-4.322-2.682-6.418c-1.615-3.423-1.823-7.514-4.86-10.264
	C29.483,278.117,30.26,277.653,30.83,277.024z"/>
<path fill-rule="evenodd" clip-rule="evenodd" fill="#222222" d="M59.856,179.011c-1.657,2.8-3.389,5.502-3.416,9.002
	c-0.018,2.284-1.86,3.704-3.597,4.988c0.684-1.983,1.766-3.912,1.372-6.097C53.384,182.292,55.376,179.784,59.856,179.011z"/>
<path fill-rule="evenodd" clip-rule="evenodd" fill="#2A2A2A" d="M9.854,323c-0.34,0.001-0.679,0.002-1.019,0.003
	c-1.198,0.795-2.196,0.508-3.047-0.567c-0.252-0.538-0.387-1.104-0.407-1.697c0.106-1.693-0.544-3.62,1.457-4.729
	c0.007-2.01,0.013-4.021,0.02-6.03C9.794,313.874,9.451,318.522,9.854,323z"/>
<path fill-rule="evenodd" clip-rule="evenodd" fill="#222222" d="M46.844,172c2.758-4.614,3.642-10.3,8.002-13.998
	C53.218,163.262,52.139,168.836,46.844,172z"/>
<path fill-rule="evenodd" clip-rule="evenodd" fill="#2A2A2A" d="M16.842,316.998c2.82,5.383,2.484,7.05-2.012,9.998
	C17.428,324.051,17.052,320.508,16.842,316.998z"/>
<path fill-rule="evenodd" clip-rule="evenodd" fill="#121212" d="M90.839,72.999c2.867-4.739,2.902-10.021,3.229-15.335
	c0.5-8.119,2.637-11.048,7.262-11.031c3.82,0.013,5.547,2.957,5.593,11.07c0.036,6.212,1.111,12.503-1.424,18.626
	c-1.339,3.232,0.595,6.476,1.345,9.671c-5.295-4.726-4.477-10.739-3.146-16.614c1.003-4.433,1.271-8.833,1.049-13.306
	c-0.142-2.829-0.905-5.521-4.337-5.599c-3.593-0.08-4.168,2.596-4.143,5.497c0.013,1.488-0.262,3.05,0.092,4.452
	C97.795,66.12,95.532,70.064,90.839,72.999z"/>
<path fill-rule="evenodd" clip-rule="evenodd" fill="#0A0A0A" d="M63.846,90.001c3.63-8.333,10.602-12.135,18.996-14.006
	c-0.333,0.668-0.666,1.337-0.998,2.005C74.397,79.83,69.345,85.25,63.846,90.001z"/>
<path fill-rule="evenodd" clip-rule="evenodd" fill="#121212" d="M118.86,93.992c-2.259-2.16-5.177-2.998-8.017-3.993
	c-1-0.999-2-1.999-3-2.999c5.575,2.186,12.554,1.561,16.005,7.997C121.773,96.71,120.57,94.095,118.86,93.992z"/>
<path fill-rule="evenodd" clip-rule="evenodd" fill="#161616" d="M219.412,207.875c-0.88,0.906-1.835,2.288-3.35,1.526
	c-1.423-0.717-1.095-2.284-1.038-3.589c0.098-2.236,1.132-4.14,2.242-6.014c1.021-1.723,2.079-3.477,1.988-5.562
	c-0.096-2.18-0.263-4.594-2.729-5.399c-2.611-0.853-4.248,1.071-4.977,3.104c-2.386,6.658-7.128,10.566-13.597,12.891
	c-3.08,1.106-4.572,4.296-7.099,6.183c-0.581-0.16-0.969-0.524-1.177-1.09c0.106-1.854,1.19-3.297,2.036-4.854
	c0.839-1.878,2.671-2.983,4.078-4.147c4.576-3.785,6.701-8.643,8.335-14.131c2.196-7.38,1.962-10.616-5.002-13.222
	c-8.529-3.19-10.44-8.45-9.105-16.583c0.524-3.195-0.469-6.631-1.207-9.854c-0.727-3.17-2.799-3.505-4.972-1.053
	c-1.568,1.77-2.146,4.144-3.494,6.035c-1.394,1.954-3.158,3.723-5.833,2.832c-2.382-0.793-2.132-3.036-2.138-5.046
	c-0.009-2.997,0.144-5.96,0.523-8.952c0.759-5.98,1.12-12.003-2.469-17.412c-2.317-3.661-1.939-8.009-3.059-11.974
	c-1.613-5.721-5.229-7.153-10.405-4.141c-3.093,1.8-8.637,1.269-11.476-1.23c-0.865-0.762-1.689-1.561-2.647-2.208
	c-1.988-3.889-5.018-5.412-9.354-4.311c-5.824,1.479-9.905-2.656-14.633-4.697c0.001-0.329,0.002-0.658,0.004-0.987
	c1.663,0.335,3.325,0.67,4.988,1.005c0.332,0.001,0.663,0.002,0.995,0.003c5.433,1.458,7.973-0.689,6.109-5.676
	c-0.772-2.064-0.9-4.179-1.582-6.218c-1.021-3.052-1.58-6.05,3.027-7.389c5.763-1.674,9.424-1.162,11.152,2.764
	c0.398,0.906,0.716,2.002,0.62,3.179c-0.264,3.265,2.273,4.639,4.676,5.182c7.194,1.623,14.634,2.085,21.579,4.915
	c3.628,1.479,7.312,0.428,10.668-0.979c4.093-1.715,7.588-0.021,10.902,1.594c3.937,1.917,4.428,7.372,1.588,12.092
	c-0.772,1.284-2.041,2.19-2.738,3.538c-0.668,1.664-1.336,3.328-2.004,4.991c-0.631,0.77-1.47,1.446-1.854,2.323
	c-1.552,3.536-3.148,7.335-1.145,11.004c2.061,3.773,6.145,2.611,9.517,2.586c5.556-0.043,10.595-1.334,13.361-6.932
	c0.356-0.722,1.01-1.326,1.618-1.886c1.073-0.988,2.13-2.446,3.83-1.386c1.5,0.935,1.321,2.554,1.077,4.065
	c-1.613,9.987,2.569,18.697,6.124,27.526c1.173,2.913,3.368,4.34,6.695,4.021"/>
<path fill-rule="evenodd" clip-rule="evenodd" fill="#1C1C1C" d="M190.819,209.968c0.012,0.349,0.023,0.698,0.034,1.047
	c-3.158,3.65-6.155,7.458-9.526,10.899c-2.828,2.888-4.52,6.145-4.946,10.095c-0.717,6.616-0.734,13.305-2.091,19.859
	c-0.269,1.298-0.308,2.876,1.156,3.523c1.858,0.821,2.72-0.847,3.514-2.021c1.396-2.063,2.588-4.265,3.865-6.409
	c0.672,0.676,0.597,1.362,0.029,2.056c-0.242,4.386-1.665,8.442-3.551,12.345c-1.668,3.453-3.373,3.489-5.612,0.247
	c-1.919-2.778-2.066-5.957-1.748-9.093c0.622-6.107,0.887-12.217,1.036-18.35c0.099-4.062,1.635-7.769,4.213-10.946
	c1.278-1.576,2.365-3.193,2.617-5.255c-0.546-0.684-0.637-1.402-0.167-2.162c2.371-1.686,5.262-2.576,6.816-5.485
	C187.33,208.688,189.26,208.962,190.819,209.968z"/>
<path fill-rule="evenodd" clip-rule="evenodd" fill="#0B0B0B" d="M203.844,121c0.766-1.275,1.514-2.562,2.303-3.823
	c0.947-1.514,0.816-2.414-0.863-3.593c-3.472-2.435-3.559-5.791-0.634-8.604c4.335-4.168,14.22-2.871,17.349,2.232
	c1.093,1.783-0.093,2.733-1.154,3.787c-2.065-5.936-5.938-8.271-11.165-6.732c-5.25,1.545-5.771,3.178-2.422,7.583
	C209.59,114.919,208.512,117.807,203.844,121z"/>
<path fill-rule="evenodd" clip-rule="evenodd" fill="#0B0B0B" d="M189.844,115c0.206,0.623,0.501,1.232,0.604,1.872
	c1.114,6.913,1.105,6.914,8.396,7.128C190.19,126.315,187.604,123.729,189.844,115z"/>
<path fill-rule="evenodd" clip-rule="evenodd" fill="#1D1D1D" d="M182.854,249.018c-0.01-0.685-0.02-1.369-0.029-2.055
	c0.203-2.751,1.491-4.773,4.004-5.976c0.678,0.011,1.354,0.022,2.032,0.033C186.859,243.687,184.856,246.352,182.854,249.018z"/>
<path fill-rule="evenodd" clip-rule="evenodd" fill="#121212" d="M190.846,108.002c0.648-1.707,1.407-3.381,1.924-5.127
	c2.122-7.175-1.892-11.45-9.303-9.901c-1.616,0.338-3.169,0.981-4.755,1.471c-4.434,1.367-8.008,2.01-12.613-1.618
	c-3.883-3.06-10.24-3.115-15.568-4.164c-4.568-0.899-9.263-0.733-8.963-7.765c0.137-3.219-3.147-4.956-6.585-4.491
	c-3.205,0.433-3.823,2.79-3.414,5.572c0.362,2.461,0.702,4.933,1.246,7.356c0.541,2.414,0.713,4.65-1.564,6.283
	c-2.286,1.641-4.392,0.851-6.406-0.618c2.346-0.284,4.428-1.055,4.19-3.895c-0.311-3.718-1.081-7.374-4.945-9.181
	c-2.1-0.981-4.493-1.416-6.453-2.597c-3.157-1.902-5.658-4.54-3.732-8.611c1.252-2.646,7.545-3.83,10.428-2.107
	c1.406,0.841,2.654,2.016,3.801,3.206c2.04,2.118,4.154,2.741,7.166,1.923c8.626-2.341,8.952-2.061,10.729,6.517
	c0.538,2.596,1.962,4.271,4.456,4.802c7.16,1.52,14.314,3.122,21.54,4.25c3.922,0.611,6.426-1.372,6.232-5.731
	c-0.075-1.714,0.375-3.259,1.082-4.809c2.72-5.962,2.369-8.531-2.396-12.741c-4.1-3.622-7.962-7.601-13.017-10.026
	c-1.304-0.626-3.011-1.257-2.838-3.092c0.189-2.02,2.106-2.366,3.639-2.934c1.934-0.717,3.944-0.774,5.892-0.135
	c5.742,1.883,11.099,1.122,16.349-1.817c2.219-1.242,5.124-3.087,6.996,0.21c1.577,2.778,1.245,5.969-1.487,8.126
	c-2.442,1.928-4.578,3.634-1.86,6.84c3.409,4.021,6.691,4.767,10.224,2.309c3.983-2.772,7.02-2.353,9.722,1.505
	c1.349,1.927,2.666,4.11,1.133,6.447c-1.375,2.098-3.638,1.839-5.881,1.634c-8.041-0.734-14.798,2.008-20.547,7.637
	c-1.964,1.923-2.15,3.153,0.506,4.371c1.205,0.554,2.303,1.338,3.479,1.961C199.455,94.465,199.953,100.342,190.846,108.002z"/>
<path fill-rule="evenodd" clip-rule="evenodd" fill="#0A0A0A" d="M170.407,80.888c-0.214,2.221-1.302,3.721-3.707,3.619
	c-2.166-0.092-3.88-1.164-3.926-3.538c-0.046-2.387,1.593-3.516,3.804-3.608C168.881,77.265,170.269,78.423,170.407,80.888z"/>
<path fill-rule="evenodd" clip-rule="evenodd" fill="#020202" d="M60.948,83.819c-2.425-0.657-4.104,0.51-5.695,2.191
	c-5.232,5.528-8.714,12.217-11.819,18.987c-1.529,3.336-3.559,6.367-5.008,9.716c-0.468,1.081-1.253,2.066-2.647,1.892
	c-1.414-0.178-1.72-1.41-2.084-2.517c-1.097-3.326-0.426-6.649,0.327-9.871c1.414-6.045,2.005-12.13,1.887-18.327
	c-0.077-4.048,0.976-7.933,2.491-11.658c2.872-7.059,9.347-7.831,14.423-1.968c1.969,2.274,2.137,6.728,4.959,7.037
	c3.246,0.354,2.96-4.692,5.466-6.351c6.149-4.068,11.449-9.029,16.282-14.615c2.3-2.658,4.314-1.634,5.117,1.747
	c1.465,6.17-0.322,10.445-6.107,13.547c-3.91,2.096-7.297,5.205-10.798,8.012C65.706,83.273,63.747,84.716,60.948,83.819z"/>
<path fill-rule="evenodd" clip-rule="evenodd" fill="#434343" d="M180.82,216.977c-0.337,0.33-0.674,0.66-1.011,0.989
	c-0.661,0.67-1.322,1.34-1.983,2.01c-6.028,2.888-8.011,7.915-7.706,14.269c0.325,6.785-0.062,13.526-1.25,20.244
	c-0.406,2.296-0.443,4.638,0.096,7.144c1.753,8.156,3.066,16.421,3.359,24.794c0.116,3.325,0.211,6.69-0.904,9.887
	c-0.956,2.741,0.293,4.002,2.724,4.679c0.635,1.046,1.653,1.885,1.733,3.227c-0.047,1.245-0.375,2.447-0.589,3.665
	c-0.198,1.92-0.961,3.493-2.717,4.456c-3.561,4.289-6.465,9.112-10.624,12.933c-0.711,0.652-1.135,1.633-2.196,1.861
	c-2.082,0.447-3.951,2.42-6.318,0.025c-2.079-2.104-0.969-3.982-0.459-5.998c0.199-0.785,0.65-1.518,0.966-2.27
	c1.423-2.204,3.032-4.295,4.408-6.543c4.996-7.453,5.435-16.202,6.995-24.621c0.074-2.162,0.062-4.181,1.18-6.345
	c2.22-4.297,0.435-8.644-2.16-12.008c-4.053-5.256-2.737-10.551-1.399-16.03c2.762-4.302,2.854-8.855,1.399-13.571
	c1.008-4.122-2.266-7.529-1.839-11.633c0.099-0.939-1.759-1.422-2.709-1.623c-8.64-1.831-10.005-4.143-6.859-12.413
	c0.706-1.856,1.609-3.652,2.333-5.503c2.938-6.075,4.304-12.399,3.26-19.181c-0.91-5.906,1.346-11.402,2.705-16.941
	c1.119-4.562,2.116-9.016,2.133-13.761c0.021-6.629,0.787-13.183,2.568-19.654c0.999-3.628,0.691-7.541-0.2-11.279
	c-0.349-3.245-0.692-6.497-2.286-9.468c-1.656-3.088-3.044-5.15-7.706-4.369c-4.789,0.803-9.965-0.987-14.976-1.585
	c-3.596-0.429-7.211,0.088-11.515,0.706c2.427,3.345,5.909,3.837,8.056,6.066c1.209,1.257,3.257,2.072,2.023,4.433
	c-0.113,0.515-0.345,0.961-0.697,1.351c-2.553,1.536-5.069,1.114-7.526-0.188c-4.331-2.298-9.285-3.279-13.188-6.561
	c-1.108-0.932-3.326-1.649-4.593-0.491c-1.316,1.205-2.301,2.962-1.936,5.157c0.5,3.007,0.963,5.968-1.219,8.817
	c-0.84,1.097-1.302,1.773-2.646,1.56c-0.477-0.224-0.863-0.546-1.158-0.966c0.069-4.862-0.364-9.622-2.383-14.165
	c-1.18-2.654,0.057-5.258,0.968-7.673c1.383-3.66,0.523-6.175-3.052-7.679c-3.518-1.479-7.343-5.178-10.819-1.139
	c-3.112,3.616,0.158,7.417,2.249,10.336c3.717,5.19,4.549,10.126,0.993,15.605c-0.938,1.445-1.773,2.527-3.434,0.874
	c-0.213-1.614,0.167-3.162,0.391-4.751c0.297-2.108,0.387-4.475-1.218-6.158c-4.164-4.37-5.004-10.562-8.583-15.231
	c-2.282-2.978-1.182-5.485,1.098-7.878c4.523-4.75,11.831-5.924,17.551-2.705c7.58,4.264,15.771,7.257,23.45,11.309
	c0.242,0.128,0.398,0.477,0.673,0.606c5.092,2.414,11.078-1.375,15.964,2.188c5.523,4.029,11.816,2.377,17.834,2.615
	c4.871,0.193,9.312,3.758,10.412,8.636c0.968,2.599,2.829,4.876,2.806,7.801c-0.213,5.583,0.22,11.114-0.783,16.757
	c-0.71,3.99,0.86,8.316,0.404,12.694c-0.833,8.008-4.172,15.395-5.066,23.354c-0.603,5.37-0.448,10.727-0.338,16.098
	c0.056,2.695,1.666,4.181,3.965,4.918c3.698,1.187,7.562,1.854,11.346,2.601c6.487,1.281,8.185,4.086,5.293,10.429
	c-0.566,1.241-1.623,2.081-2.443,3.111C182.988,215.875,181.835,216.335,180.82,216.977z"/>
<path fill-rule="evenodd" clip-rule="evenodd" fill="#353535" d="M182.833,259.992c0.008,1.005,0.017,2.009,0.025,3.014
	c2.017,1.172,1.889,3.389,1.438,4.895c-3.307,11.021-3.558,22.974-9.966,33.062c-0.412,0.648-0.976,0.716-1.495,1.017
	c-1.306,0.508-2.229,2.546-3.892,1.432c-1.396-0.935-1.243-2.77-0.914-4.169c1.382-5.868,2.049-11.771,1.854-17.812
	c-0.178-5.474,0.35-10.961-2.422-16.102c-1.105-2.052-0.948-4.656-0.382-6.893c2.202-8.691,1.645-17.534,1.825-26.348
	c0.142-6.959,2.43-9.921,8.922-12.113c-5.353,4.496-6.632,10.394-6.057,17.038c0.17,1.958,0.006,4.037-0.471,5.944
	c-2.574,10.316,0.536,20.452,0.874,30.668c0.069,2.108,0.866,4.832,3.36,4.923c2.765,0.101,2.634-2.844,3.302-4.831
	C180.354,269.194,180.064,264.146,182.833,259.992z"/>
<path fill-rule="evenodd" clip-rule="evenodd" fill="#3C3C3C" d="M166.864,117.988c-2.013-6.113-6.249-8.574-12.604-8.019
	c-5.222,0.456-10.273-0.203-14.737-3.377c-1.397-0.993-3.09-1.301-4.771-0.798c-4.833,1.445-9.314-0.265-13.471-2.111
	c-6.959-3.091-13.652-6.793-20.389-10.367c-4.801-2.548-13.949-0.669-17.132,3.638c-1.735,2.349-1.392,4.53-0.001,6.923
	c2.66,4.576,5.103,9.279,7.724,13.879c1.931,3.388,0.489,6.823,0.361,10.245c2.09,2.721,0.657,3.487-1.986,3.581
	c-1.271-1.522-0.559-3.053-0.017-4.583c0.626-4.479-0.499-8.199-3.159-12.107c-3.892-5.717-5.994-12.526-10.467-18.052
	c-1.804-2.229,1.616-6.75,6.263-7.967c6.091-1.595,11.837-2.536,18.128,1.353c7.864,4.861,16.751,8.075,25.229,11.93
	c1.031,0.469,2.281,0.775,3.395,0.689c5.72-0.441,10.814,1.283,15.619,4.174c1.858-0.125,3.762-0.16,5.51,0.412
	c2.512,0.822,4.757,0.848,7.044-0.672c2.76-1.834,5.617-1.52,7.924,0.71C168.091,110.142,168.636,115.047,166.864,117.988z"/>
<path fill-rule="evenodd" clip-rule="evenodd" fill="#353535" d="M58.769,144.127c0.649,4.541-3.423,7.503-5.778,11.144
	c-2.317,3.58-5.286,6.702-7.031,10.723c-0.744,1.714-2.23,3.865-4.574,2.764c-2.129-1.001-1.043-3.153-0.667-4.899
	c1.567-7.267,1.533-14.773,3.601-21.994c1.146-4,2.789-6.809,7.317-6.5C55.809,135.646,58.696,139.097,58.769,144.127z"/>
<path fill-rule="evenodd" clip-rule="evenodd" fill="#2B2B2B" d="M166.864,117.988c-0.512-8.5-3.108-10.617-11.438-9.351
	c-3.689,0.561-7.173-0.288-10.577-1.619c-0.668-1.011-1.336-2.021-2.005-3.031c5.828,2.441,11.439,4.265,17.331-0.418
	c2.824-2.245,6.419,0.208,8.095,5.43c1.469,4.578,2.405,9.326,3.577,13.999c0.49,0.521,0.707,1.159,0.802,1.851
	c-0.167,0.448-0.475,0.755-0.924,0.921c-1.181,0-1.267-1.166-1.883-1.767C169.555,121.648,168.703,119.574,166.864,117.988z"/>
<path fill-rule="evenodd" clip-rule="evenodd" fill="#353535" d="M89.842,126.999c-0.004,1.328-0.006,2.655-0.009,3.983
	c1.003,2.602-1.048,3.713-2.567,4.917c-4.176,3.309-6.754,7.627-8.346,12.626c-3.198,1.769-4.894,6.311-9.617,5.409
	c-0.838-1.794,0.655-2.473,1.498-3.694c2.085-3.022,5.238-5.385,6.046-9.238l0,0C80.753,135.939,86.228,132.333,89.842,126.999z"/>
<path fill-rule="evenodd" clip-rule="evenodd" fill="#262626" d="M40.852,296.996c0.227,0.242,0.433,0.51,0.685,0.724
	c1.646,1.394,1.988,5.146,4.903,4.004c2.939-1.151,2.533-4.532,2.063-7.063c-0.914-4.926,1.353-6.793,5.782-7.99
	c8.613-2.327,12.541-9.699,10.093-18.014c-2.122-7.207-1.933-8.115,4.364-12.405c3.18-2.166,3.762-3.557-0.287-5.152
	c-2.175-0.856-4.037-2.297-5.6-4.072l-0.014-0.033c0.533-0.525,1.043-1.078,1.703-1.42c4.473,0.604,8.988,1.844,13.18-1.003
	c3.499-1.481,6.839-1.646,8.948,2.129c1.766,3.16,0.329,7.438-3.085,10.045c-1.184,0.905-2.363,1.845-3.683,2.549
	c-4.735,2.528-6.256,6.743-7.116,11.8c-1.453,8.545-3.583,16.987-9.088,24.042c-3.489,4.472-6.163,9.446-9.158,14.225
	c-2.335,3.727-5.043,4.275-7.914,1.176c-1.984-2.143-4.434-3.913-5.913-6.495c-1.332-2.324-2.497-4.734,0.118-7.032L40.852,296.996z
	"/>
<path fill-rule="evenodd" clip-rule="evenodd" fill="#262626" d="M49.847,198c-0.45,6.049-1.916,11.056-8.634,13.54
	c-3.854,1.425-4.799,10.479-1.948,14.905c3.285,5.102,6.335,10.497,11.965,13.638c1.078,0.602,1.755,1.924,2.617,2.913
	c-11.824-3.251-16.734-12.174-18.598-23.263c-0.627-3.733,1.081-7.832,4.07-9.618C44.337,207.117,47.19,202.77,49.847,198z"/>
<path fill-rule="evenodd" clip-rule="evenodd" fill="#343434" d="M64.844,247.001c-0.667-0.002-1.334-0.005-2.002-0.008
	c-1.529-2.452-3.691-4.396-6.011-5.915c-3.936-2.576-6.398-6.206-8.684-10.112c-1.085-1.854-2.186-3.771-3.64-5.32
	c-5.23-5.577-4.081-11.312,3.188-13.614c4.269-1.351,6.211-3.567,5.145-8.032c4.259-0.619,4.777,3.003,5.653,5.539
	c0.929,2.688,0.038,5.207-3.321,5.891c-6.646,1.292-7.377,3.668-4.318,10.032c3.271,6.807,7.792,11.895,14.719,15.12
	c5.169,2.407,7.678,2.341,11.096-2.303c1.652-2.246,3.816-4.09,5.079-6.637c0.726-1.462,2.012-2.142,3.658-2.124
	c6.617,0.117,8.695,2.597,6.407,9.143c-1.439,4.116-0.342,5.792,3.192,7.54c4.381,2.168,4.416,4.429,0.717,7.483
	c-0.901,0.744-1.915,1.297-2.89,1.912c-11.85,7.487-16.928,19.138-20.64,32.019c-1.69,5.865-2.613,12.322-6.275,17.335
	c-2.542,3.479-6.383,6.055-9.495,9.191c-0.828,0.346-1.706,0.332-2.58,0.352c-6.424,1.921-9.934-3.29-14.501-5.918
	c-2.115-0.573-2.695-2.155-2.745-4.105c1.143-3.691-0.275-7.062-2.551-9.499c-3.397-3.638-3.136-8.345-4.699-12.482
	c-0.326-0.863-0.812-3.113,1.492-3.481c3.816,3.127,3.956,8.078,5.94,12.112c1.082,2.198,1.717,4.597,4.056,5.89
	c-0.175,5.461,3.44,8.799,6.927,12.148c1.475,1.416,3.267,1.327,4.084-0.667c4.005-9.767,13.112-16.402,16.2-26.77
	c1.094-3.672,2.277-7.128,2.213-11.11c-0.098-6.117,1.558-11.604,8.416-13.728c1.074-0.332,2.018-1.151,2.958-1.834
	c2.185-1.586,3.664-3.66,2.589-6.401c-1.265-3.223-3.92-2.348-6.377-1.647C73.511,248.878,69.177,247.638,64.844,247.001z"/>
<path fill-rule="evenodd" clip-rule="evenodd" fill="#353535" d="M52.839,214.002c4.91-2.458,4.91-4.598,0.001-10.003
	c-1.468-3.284-0.588-5.732,2.492-7.588c2.912-1.754,4.514-4.252,4.198-7.863c-0.338-3.864,2.455-5.604,5.386-6.947
	c2.601-1.193,6.58-0.807,6.886-4.648c0.316-3.98-3.053-5.961-5.937-7.96c-0.34-0.665-0.679-1.329-1.019-1.994
	c-1.991-2.739-2.086-5.644-0.76-8.669c0.845-0.39,1.835-0.354,2.12,0.517c1.822,5.573,5.705,8.557,10.987,11.064
	c3.831,1.819,6.486,6.136,7.806,10.528c0.906,3.018,0.72,6.275,0.98,9.416c0.312,3.744-3.13,5.577-7.328,4.126
	c-2.046-0.706-3.759-2.147-5.802-2.896c-2.686-0.985-4.683-0.783-4.665,2.771c0.02,3.897-2.511,5.03-5.792,5.612
	c-4.852,0.86-5.294,1.898-2.694,5.71c2.645,3.876,3.251,8.11,2.281,12.643c-0.404,0.432-0.89,0.647-1.474,0.668
	C57.322,218.063,53.933,217.986,52.839,214.002z"/>
<path fill-rule="evenodd" clip-rule="evenodd" fill="#3A3A3A" d="M6.853,321.987c0.661,0.338,1.322,0.677,1.982,1.015
	c0.146,2.659,1.127,4.756,3.661,6.018c4.017,2,7.431,0.296,7.846-4.16c0.229-2.459,0.268-4.964-0.78-7.332
	c-2.045-4.626-2.764-9.51-2.729-14.53c1.074-0.67,2.079-0.438,2.338,0.742c0.974,4.434,3.315,8.05,6.379,11.297
	c0.079,1.302-0.481,2.522-0.289,3.896c0.393,2.817,1.17,3.946,4.114,2.112c3.633-2.263,8.132-2.062,12.077-3.815
	c3.02-1.342,5.686,1.254,8.106,3.108c0.34,1.059,1.2,1.814,1.647,2.812c1.614,5.851,7.02,8.224,11.02,11.838
	c2.616,2.363,5.097,4.724,6.057,8.188c0.986,3.562-0.755,5.952-3.988,4.945c-6.076-1.893-12.884-2.191-17.552-7.588
	c-1.616-1.869-4.373-2.166-6.61-3.102c-2.692-1.126-3.766,1.227-4.636,3.213c-0.759,1.732-1.417,3.419-3.736,3.39
	c-2.366-0.03-3.147-1.811-4.037-3.532c-1.971-3.811-4.399-6.182-9.42-5.28c-4.906,0.881-8.587-2.713-12.429-5.224
	c-0.341-0.486-0.514-1.018-0.509-1.609C5.773,326.23,4.209,323.62,6.853,321.987z"/>
<path fill-rule="evenodd" clip-rule="evenodd" fill="#404040" d="M22.834,316.014c-3.597-3.603-3.511-8.904-6.002-13.017
	c-4.192-10.238-1.303-20.208,1.31-30.13c0.532-2.022,1.906-4.047,4.41-4.25c2.644-0.215,3.699,1.817,4.621,3.825
	c0.845,1.837,1.825,3.544,3.657,4.582c0.003,0.661,0.006,1.321,0.008,1.981c0.358,6.158,3.482,11.387,5.759,16.886
	c1.088,2.627,2.313,5.16,2.256,8.083c0.439,0.423,0.486,0.886,0.142,1.391c-0.492,0.448-1.365,1.097-1.659,0.479
	c-1.871-3.926-6.121-6.572-6.172-11.468c-0.048-4.533-3.108-7.46-5.871-10.431c-1.259-1.354-2.68-0.601-3.734,0.848
	c-2.825,3.881-2.87,8.349-1.737,12.533c1.136,4.198,1.865,8.578,4.134,12.525c0.733,1.277,2.004,3.66,0.238,5.575
	C23.826,315.823,23.372,316.017,22.834,316.014z"/>
<path fill-rule="evenodd" clip-rule="evenodd" fill="#2B2B2B" d="M64.842,158.998c-1.292,2.668-0.653,5.334,0.005,8
	c-3.299-5.627-2.693-10.364,1.968-14.467c3.864-3.401,6.937-7.471,10.032-11.529c-0.265,5.209-4.621,8.024-7.013,11.99
	C70.262,156.732,68.022,158.257,64.842,158.998z"/>
<path fill-rule="evenodd" clip-rule="evenodd" fill="#424242" d="M6.853,321.987c-0.001,2.336-0.003,4.673-0.005,7.009
	c-4.218-0.986-5.159-5.204-2.007-8.992c0.659,0.333,1.319,0.666,1.979,0.999C6.833,321.331,6.844,321.659,6.853,321.987z"/>
<path fill-rule="evenodd" clip-rule="evenodd" fill="#212121" d="M171.859,124.992c-0.004-0.665-0.009-1.329-0.013-1.994
	c2.854,2.444,3.021,5.779,2.983,9.152c-0.064,5.65-0.211,11.299-0.252,16.948c-0.008,1.089-0.275,2.592,1.284,2.864
	c1.355,0.236,2.017-0.982,2.604-1.985c1.595-2.727,3.062-5.53,4.736-8.206c0.981-1.566,2.314-3.011,4.417-2.723
	c1.979,0.271,2.716,2.082,2.968,3.636c0.968,5.967,3.561,11.683,2.099,18.043c-0.875,3.807,0.119,7.237,4.666,8.618
	c4.385,1.331,7.271,5.199,11.344,7.158c1.368,0.658,1.654,2.257,0.914,3.501c-3.172,5.33-4.53,11.417-7.083,16.9
	c-1.734,3.728-6.352,6.112-9.681,9.097c-2.744-2.369-0.249-4.728,0.287-6.879c0.713-2.863,2.478-5.402,4.234-7.848
	c1.39-1.935,2.222-4.127,2.014-6.556c-0.168-1.954-0.83-3.851-3.22-3.579c-2.034,0.23-2.411,2.021-2.348,3.819
	c0.023,0.669,0.234,1.306,0.394,1.953c1.947,7.948-1.421,11.655-9.385,9.972c-4.695-0.993-9.024-3.332-13.336-5.294
	c-3.389-1.541-3.444-5.892-3.569-9.549c-0.203-5.951,1.188-11.665,2.547-17.356c1.337-5.598,0.693-11.302,0.464-16.811
	C170.606,140.162,171.763,132.62,171.859,124.992z"/>
<path fill-rule="evenodd" clip-rule="evenodd" fill="#2B2B2B" d="M171.859,124.992c2.391,3.203,2.174,6.946,1.889,10.565
	c-0.677,8.604-1.547,17.175-1.219,25.847c0.116,3.062-0.936,6.227-1.774,9.255c-1.184,4.275-1.073,8.552-0.527,12.854
	c0.21,1.646,0.635,4.201,1.91,4.382c5.31,0.754,8.46,5.667,13.601,6.552c2.06,0.354,4.03,0.497,5.566-1.159
	c1.675-1.806,0.81-3.655-0.05-5.54c-0.541-1.185-1.012-2.497-1.093-3.778c-0.213-3.356,3.355-8.259,6.103-8.115
	c4.051,0.212,5.668,3.328,6.13,6.757c0.544,4.029-0.195,7.911-3.062,11.172c-3.116,3.542-5.273,7.643-6.486,12.219
	c-0.675,1.322-1.351,2.645-2.026,3.966c-3.507,2.088-5.183,6.788-9.999,7.009c0.347-0.652,0.693-1.305,1.039-1.957
	c3.346-1.932,4.749-5.079,5.414-8.678c0.551-2.982-0.659-4.226-3.737-4.451c-5.079-0.373-9.815-2.437-14.745-3.6
	c-2.449-0.578-2.994-2.718-3.398-5.26c-1.396-8.783,0.003-17.254,2.371-25.585c1.198-4.216,1.554-8.479,1.476-12.693
	c-0.174-9.429,2.969-18.629,1.687-28.097c-0.102-0.749,0.479-1.165,0.903-1.647L171.859,124.992z"/>
<path fill-rule="evenodd" clip-rule="evenodd" fill="#161616" d="M121.62,71.915c1.521,0.358,2.788,1.2,2.968,2.87
	c0.162,1.517-1.029,1.963-2.31,1.899c-1.686-0.084-2.895-0.885-2.921-2.721C119.339,72.59,120.098,71.816,121.62,71.915z"/>
<path fill-rule="evenodd" clip-rule="evenodd" fill="#4F4F4F" d="M0.838,321.002c0.9-5.529-3.558-10.392-1.992-16.004
	c0.666,1.001,1.332,2.001,1.998,3.002c2.745,0.147,2.315,2.551,2.368,4.008c0.103,2.8,0.872,5.375,1.63,7.994l-0.001,0.001
	c0.099,3.126-0.47,6.399,2.007,8.993h0.003c1.246,1.355,2.056,2.771,0.616,4.496c-3.697,2.388-4.568-1.462-5.506-3.111
	C0.395,327.625-3.245,324.606,0.838,321.002z"/>
<path fill-rule="evenodd" clip-rule="evenodd" fill="#565656" d="M137.855,122.976c-2.867-3.218-6.909-4.561-10.523-6.585
	c-1.856-1.04-4.644-1.759-4.279-4.264c0.422-2.9,3.398-1.915,5.399-2.105c5.349-0.511,10.622,0.019,15.887,1.11
	c3.085,0.64,6.266,1.043,9.413,1.115c8.507,0.195,11.479,2.672,12.906,11.255c0.136,0.818,0.137,1.659,0.2,2.489
	c1.486,2.334,1.343,4.938,0.675,7.355c-2.324,8.401-3.847,16.893-3.721,25.637c0.111,7.71-3.588,14.65-4.515,22.179
	c-0.25,2.031-1.238,4.088-0.677,6.125c1.501,5.439,0.12,10.819-0.913,15.951c-0.877,4.353-2.87,8.706-5.281,12.649
	c-0.062,0.577-0.162,1.158-0.295,1.726c-3.056,2.532-4.625,6.118-6.62,9.405c-2.413,1.313-4.865,2.563-7.038,4.274
	c-3.554,1.601-7.606,1.385-11.153,3.456c-1.432,0.836-3.743-0.936-4.809-2.977c-2.576-4.937-4.348-5.629-9.416-3.832
	c-2.194,0.778-4.172,2.075-6.391,2.779c-4.039,1.282-6.801-0.455-6.5-4.794c0.348-4.998-0.917-9.803-0.881-14.731
	c0.039-5.268-2.108-9.824-5.167-13.967c-3.023-4.096-5.166-8.017-1.489-13.079c1.68-2.312,2.549-5.316,0.353-8.348
	c-0.8-1.103-0.784-3.003-0.002-4.509c4.41-1.163,8.181,1.585,9.156,6.767c0.309,1.638,0.336,3.345,0.132,4.981
	c-0.824,6.637-0.225,12.831,3.959,18.484c1.862,2.519,1.058,5.745,0.578,8.743c-0.851,5.326-0.027,6.386,5.277,6.208
	c6.902-0.231,13.473,0.301,19.789,3.729c4.459,2.419,12.357-2.125,14.287-8.555c2.349-7.825,5.917-15.757,1.931-24.23
	c-1.481-3.15-0.601-6.195,1.364-8.941c0.97-1.354,2.01-2.669,2.562-4.265c0.623-1.801,0.94-3.654-0.716-5.072
	c-1.521-1.304-3.139-0.644-4.65,0.173c-8.501,4.593-18.407,4.302-27.225,7.837c-1.829,0.733-3.514-0.368-5.056-1.486
	c-5.548-4.021-10.017-9.243-15.26-13.611c-2.355-1.962-2.426-5.412-3.963-7.98c-0.684-1.144-1.315-2.323-2.184-3.339
	c-0.646-0.757-1.424-1.637-2.497-0.92c-0.972,0.648-0.744,1.763-0.46,2.737c0.601,2.056,2.257,3.292,3.815,4.498
	c3.087,2.39,3.741,5.771,4.063,9.296c0.163,1.782-0.206,3.356-2.567,3.249c-1.816,0.057-3.737-0.217-5.244,1.097
	c-3.221,2.805-6.756,2.147-10.356,1.086c-0.543-0.758-1.182-1.459-1.388-2.408c0.179-1.462,1.359-2.2,2.26-3.146
	c1.184-1.242,2.148-2.587,1.444-4.422c-0.261-0.678-0.903-1.024-1.614-0.851c-1.954,0.479-2.285,2.067-2.647,3.767
	c-0.37,1.733,0.503,4.245-2.473,4.64c-7.354-3.456-8.002-6.86-2.282-12.574c2.497-2.494,5.103-4.857,5.909-8.498
	c1.527-5.95,6.674-8.957,10.944-12.326c2.063-1.628,3.204-2.842,3.456-5.287c0.344-3.354,2.051-5.96,4.989-7.611
	c3.362-1.89,5.763-0.478,5.989,3.374c0.131,2.217,0.092,4.545-1.51,6.136c-3.824,3.798-4.9,8.613-4.006,13.406
	c0.74,3.961,3.547,7.383,5.942,10.746c1.158,2.216,2.887,3.948,4.779,5.545c1.13,1.422,2.792,2.29,3.712,3.957
	c1.89,3.425,4.561,3.89,8.15,2.404c3.646-1.509,7.522-2.099,11.586-2.092c7.539,0.015,12.622-5.058,13.357-12.544
	c0.266-2.707,0.704-6.068,2.627-7.456c4.471-3.229,3.048-5.678,0.021-8.509c-0.223-2.351,0.472-4.971-3.184-5.729
	c-2.194-0.456-2.113-3.567-3.908-4.804C140.439,126.101,139.027,124.646,137.855,122.976z"/>
<path fill-rule="evenodd" clip-rule="evenodd" fill="#494949" d="M137.854,228.005c1.996-1.002,3.993-2.003,5.989-3.005
	c4.238-0.999,5.319-4.762,7-8l0,0c1.201-2.42,2.968-4.527,3.951-7.064c0.401-1.036,0.863-1.726,2.051-0.935
	c-0.964,2.79-2.04,5.547-2.864,8.378c-1.021,3.506-0.071,6.069,3.707,7.342c8.159,2.749,10.312,6.887,8.157,15.28
	c-3.554-0.073-2.112-3.007-2.693-4.757c-0.74-2.231-0.041-5.758-4.535-4.242c-0.76,0.257-2.396-0.746-3.452-1.627
	c-3.17-2.644-4.901-0.471-6.272,2.125c-0.757,1.432-0.862,3.136-1.464,4.669c-1.505,3.837-3.565,6.39-8.018,7.842
	c-6.343,2.069-12.893,4.205-17.38,10.179c-2.979,3.968-8.636,3.957-12.903,6.145c-0.869,0.445-1.915,0.556-2.839,0.941
	c-6.206,2.594-7.686,7.091-4.196,12.74c3.35,5.423,2.528,8.967-2.701,12.638c-3.433,2.409-7.151,4.214-10.935,5.965
	c-6.019,2.786-7.394,5.262-6.893,11.755c0.855,11.105,0.516,11.663-10.251,15.974c-2.697,1.08-5.101,3.175-8.464,2.079
	c-0.729-0.237-1.765-0.117-2.547-0.593c-5.01-3.044-4.991-3.039-8.842,1.431c-0.391,0.453-0.453,1.264-1.259,1.338
	c-0.534-0.005-0.984-0.215-1.345-0.614c-0.339-0.662-0.678-1.324-1.016-1.985c-1.723-4.123-1.324-4.81,3.763-6.478
	c6.366-0.145,12.731,0.454,18.476-3.771c2.379-1.75,3.849-3.223,3.732-6.087c-0.284-7.055,0.864-13.724,4.508-19.947
	c1.571-2.685,3.506-3.933,6.537-4.346c7.075-0.964,9.009-4.285,6.874-11.198c-1.618-5.238,0.01-9.421,4.876-11.559
	c4.24-1.863,7.508-5.012,11.082-7.752c1.783-1.366,2.212-3.063-0.41-4.126c-5.417-2.195-9.994-5.207-11.046-11.508
	c-0.248-1.485-1.64-1.4-2.261-2.271c-0.484-0.565-0.67-1.287-0.999-1.927c-2.03-4.105-5.176-1.8-7.997-1.383
	c-0.739,0.296-1.485,0.544-2.253,0.749c-2.501,0.04-4.746,1.047-6.741,2.311c-4.749,3.008-10,2.564-15.118,2.302
	c-4.996-0.257-7.727-3.759-9.438-8.133c-0.213-0.999-1.027-1.744-1.456-2.677c-1.129-2.455-1.517-4.573,0.522-6.862
	c2.042-2.292,4.35-1.407,6.05-0.324c1.736,1.106,2.872,0.793,4.301-0.016l0,0c0.614-0.703,1.472-1.239,1.47-2.3
	c0.526-2.228-0.294-4.242-1.276-6.085c-1.188-2.229-0.491-4.272,0.656-5.926c1.292-1.861,3.452-1.099,5.345-0.618
	c3.941,1.001,7.083,3.074,9.814,6.163c3.462,3.917,8.136,5.806,13.307,6.41c0.433,0.238,0.859,0.493,1.277,0.761
	c1.589,0.644,0.228,2.863,2.271,3.944c0.134-3.877,2.614-6.723,2.541-10.331c-0.102-2.848-1.49-5.079-3.405-7.041
	c-4.214-2.745-6.479-6.67-6.983-11.643c-0.161-0.459-0.307-0.928-0.421-1.4c-0.296-2.176,0.467-3.931,1.689-5.761
	c1.111-1.664,1.166-3.591-1.706-3.861c-1.435-2.45-4.047-3.998-5.305-6.61c0.106-0.614,0.437-0.999,1.025-1.169
	c2.695-0.23,5.221,0.77,7.758,1.314c5.181,1.114,6.894,6.484,3.953,11.386c-2.737,4.562-2.617,8.33,1.612,11.668
	c5.707,4.504,6.69,10.177,5.965,16.771c-0.474,4.302,0.092,8.633-0.58,12.999c-0.296,1.918,0.714,4.898,3.993,5.688
	c2.591,0.624,5.219,1.984,7.747,1.036c4.591-1.721,8.522-1.03,12.516,1.599c2.454,1.615,5.165,0.758,7.237-0.951
	C133.468,231.292,135.608,229.586,137.854,228.005z"/>
<path fill-rule="evenodd" clip-rule="evenodd" fill="#4E4E4E" d="M49.847,323.995c3.011-6.223,4.452-6.84,10.825-4.227
	c1.996,0.818,3.691,0.635,5.732,0.013c9.441-2.874,15.545-7.506,12.581-18.878c-1.333-5.116,1.853-8.362,6.733-10.094
	c4.557-1.616,8.85-3.845,12.734-6.771c3.195-2.406,3.777-5.109,1.333-8.567c-5.002-7.076-3.107-13.352,4.942-16.638
	c3.533-1.442,7.193-2.571,10.761-3.935c1.379-0.526,3.266-0.957,3.887-2.03c2.993-5.177,8.319-6.13,13.219-8.006
	c6.957-2.663,12.368-7.062,15.031-14.287c1.19-3.229,3.351-5.151,6.863-4.164c4.012,1.126,8.852,1.314,10.007,6.757
	c0.481,2.271,0.901,4.555,1.35,6.832c1.806,4.819,0.693,9.429-1.003,13.996c-1.285,6.323-0.423,12.427,1.691,18.459
	c1.911,5.448,1.964,10.991,0.319,16.538c-1.591,8.54-2.648,17.23-7.012,24.993c-1.222-0.621-1.961-1.629-2.409-2.907
	c1.3-5.66,1.607-11.529,3.312-17.163c1.044-3.452,0.384-7.001-1.556-10.093c-1.504-2.397-1.581-4.69-0.83-7.373
	c1.066-3.812,0.364-7.772-0.242-11.562c-0.841-5.264-0.049-9.866,1.986-14.906c2.323-5.752,2.316-12.132-1.648-17.828
	c-1.614-2.318-2.973-2.684-5.111-0.834c-2.816,2.436-5.398,5.292-7.33,8.253c-2.349,3.602-5.218,5.995-8.892,7.629
	c-6.484,2.885-9.312,9.441-14.223,13.761c-7.544,6.635-13.412,13.327-13.289,24.258c0.045,4.039-3.214,7.895-6.96,10.524
	c-4.74,3.327-6.305,7.709-4.885,13.496c1.35,5.498,0.129,7.241-4.443,10.413c-9.791,6.793-20.281,9.686-32.062,6.53
	c-3.048-0.816-4.603,1.011-5.775,3.428C51.9,329.451,50.786,326.812,49.847,323.995z"/>
<path fill-rule="evenodd" clip-rule="evenodd" fill="#4F4F4F" d="M159.842,309.995c0,1.33,0,2.661,0,3.992
	c-1.332,1.671-2.665,3.342-3.998,5.013c-0.672,0.62-1.206,1.373-1.91,1.957c-2.967,0.802-4.517,3.404-6.264,5.481
	c-3.017,3.585-6.567,6.503-10.074,9.515c-0.858,0.737-2.304,1.595-1.345,2.752c1.181,1.427,2.494,0.155,3.311-0.818
	c2.951-3.52,6.292-5.859,11.091-6.757c2.91-0.545,5.259-0.362,7.854,0.527c2.671,0.915,4.684,0.551,4.818-2.902
	c0.106-2.695,1.682-5.004,2.096-7.627c0.221-0.43,0.505-0.808,0.863-1.131c0.856-0.69,1.71-0.878,2.562,0.002
	c-0.645,3.927-1.223,7.866-1.953,11.777c-0.859,4.603-2.984,5.859-7.386,4.54c-11.078-3.321-12.949-2.331-16.896,8.938
	c-1.565,4.471-4.577,5.448-8.438,2.738c-4.904-3.442-16.66-0.358-19.24,5.045c-1.096,2.296-0.262,3.862,1.911,4.812
	c1.836,0.803,3.673,1.566,5.011,3.145c-1.73,2.378-2.894,2.386-10.153-0.205c-1.677-0.599-3.881-0.747-3.521-3.579
	c0.17-1.333,0.655-2.32,1.35-3.453c1.168-1.902,2.772-3.701,2.95-6.079c-4.953-2.019-6.293,2.294-8.71,4.675
	c-1.742,0.605-3.363,1.447-4.909,2.435c-4.579,2.925-9.359,5.229-14.49,7.244c-7.557,2.969-13.646,8.202-14.235,17.522
	c-0.472,7.446-1.966,14.813-1.883,22.313c0.049,4.41-1.84,8.012-4.693,11.215c-2.132,2.393-4.738,2.035-5.531-0.542
	c-1.55-5.037-5.835-8.984-5.665-14.628c-1.271-9.733-3.141-19.408-7.045-28.388c-2.982-6.859-5.054-14.014-7.968-20.866
	c-0.195-0.458-0.428-0.909-0.536-1.392c-0.736-3.303-2.981-7.252,0.883-9.506c3.253-1.896,6.664,0.395,9.223,2.686
	c5.805,5.196,13.129,6.528,20.244,8.435c1.993,0.533,3.547-0.359,4.704-1.993c0.623-0.482,1.197-1.016,1.695-1.635
	c2.754-2.931,5.213-0.191,6.216,1.311c4.948,7.411,10.633,5.592,16.421,1.761c7.863-5.203,16.44-8.863,24.917-12.872
	c6.771-3.202,12.728-8.214,18.785-12.783c3.542-2.672,7.182-5.044,11.349-6.636c2.331-0.891,3.929-2.823,5.467-4.729
	C157.527,310.3,158.131,308.836,159.842,309.995z"/>
<path fill-rule="evenodd" clip-rule="evenodd" fill="#4C4C4C" d="M80.833,148.998c-1.402,3.402-3.403,6.332-6.137,8.873
	c-4.889,4.547-4.581,6.551,1.163,10.107c1.865-1.754,3.428-2.329,3.984,1.021c0.338,0.666,0.675,1.331,1.012,1.997
	c0.719,0.321,0.721,0.646,0.006,0.976l-0.019,0.04c-4.432,0.337-12.483-3.574-13.867-6.938c-1.569-3.816-0.338-7.158,2.726-9.558
	c3.154-2.47,5.868-5.256,8.137-8.521c1.827-6.964,7.482-11.062,11.995-16.015c0.67-0.994,1.341-1.987,2.012-2.981
	c3.677-4.839,3.121-9.431-0.49-14.109c-1.499-1.942-2.494-4.302-3.548-6.551c-1.118-2.389-2.713-5.049-0.736-7.486
	c2.097-2.586,5.301-3.525,8.567-3.008c5.053,0.8,8.925,4.223,13.255,6.6c1.271,0.697,1.739,2.387,0.894,3.526
	c-4.571,6.162-3.554,12.784-2.03,19.547c0.322,1.426,0.072,2.98,0.085,4.477c1.115,4.297-1.253,7.968-2.464,11.729
	c-1.091,3.386-2.297,6.535-1.28,10.096c-0.142,0.523-0.433,0.934-0.887,1.227c-1.381,0.342-2.229-0.324-2.738-1.515
	c-2.258-5.268-3.121-10.542-0.31-15.943c1.308-2.511,2.794-5.011,3.494-7.735c0.567-2.205,0.775-4.845-2.012-6.04
	c-2.539-1.09-3.932,1.011-4.666,2.658c-2.839,6.366-7.008,11.566-12.226,16.143C82.68,143.434,82.021,146.461,80.833,148.998z"/>
<path fill-rule="evenodd" clip-rule="evenodd" fill="#3D3D3D" d="M107.846,132.004c2.146-2.697,1.761-5.831,1.734-8.986
	c-0.056-6.662,1.399-7.947,7.771-7.147c7.521,0.944,14.171,4.136,20.488,8.14c2.933,0.065,4.272,2.418,5.654,4.342
	c2.26,3.148,1.104,5.593-2.755,6.425c-1.312,0.282-2.559,0.726-3.775,1.246c-2.359,1.01-2.35,2.784-0.615,4.091
	c2.135,1.608,3.211,3.938,4.514,5.985c4.478,7.037,2.728,8.5-3.162,13.478c-2.333,1.973-4.528,0.005-6.246-0.991
	c-2.962-1.717-5.044-1.399-7.863,0.468c-6.846,4.535-9.486,4.392-13.901,0.369c-7.31-6.661-7.728-8.918-4.129-17.004
	C107.001,139.181,106.722,135.403,107.846,132.004z"/>
<path fill-rule="evenodd" clip-rule="evenodd" fill="#383838" d="M171.829,125.009c1.159,7.688,0.632,15.249-1.554,22.722
	c-0.412,1.408-0.511,2.992-0.376,4.461c0.918,9.958-2.011,19.459-3.443,29.127c-0.474,3.197-0.489,6.258,0.037,9.413
	c0.563,3.377,2.334,5.507,5.741,5.989c4.812,0.682,8.922,4.161,14.402,2.706c2.945-0.781,4.359,1.968,3.492,4.983
	c-1.325,4.614-3.396,8.725-8.27,10.609c0.887-1.589,2.059-3.085,2.604-4.782c1.451-4.523,0.164-6.482-4.557-7.257
	c-2.623-0.43-5.272-0.712-7.916-1.003c-5.699-0.627-7.649-2.408-7.99-8.172c-0.553-9.338-0.13-18.585,2.685-27.654
	c1.123-3.616,1.743-7.48,1.957-11.268c0.581-10.283,0.823-20.586,1.2-30.881C170.504,124.338,171.166,124.674,171.829,125.009z"/>
<path fill-rule="evenodd" clip-rule="evenodd" fill="#454545" d="M107.846,132.004c0.043,4.483-0.104,8.837-2.014,13.132
	c-2.195,4.938-0.569,8.244,4.567,12.921c3.743,3.406,7.398,2.653,10.806,0.089c3.848-2.896,7.354-4.079,11.612-0.824
	c2.146,1.64,4.367,0.815,6.228-1.078c2.048-2.083,3.219-4.423,1.557-7.126c-1.731-2.815-3.838-5.397-5.743-8.107
	c-2.24-3.185-1.311-5.662,1.924-7.347c6.702-3.491,6.784-3.979,1.057-9.653c0.005-0.345,0.011-0.688,0.017-1.033
	c1.944,0.542,3.675,1.438,4.992,3.019c1.099,1.903,2.941,3.159,4.255,4.862c2.936,3.803,2.485,7.182-1.486,9.521
	c-2.175,1.282-1.521,2.755-1.116,4.499c0.732,3.161,1.091,6.174,0.047,9.555c-1.694,5.487-5.52,8.995-11.367,8.427
	c-4.238-0.413-8.034-0.148-11.967,1.914c-4.313,2.264-8.609,0.775-11.883-2.593c-2.607-2.682-6.251-4.773-6.483-9.183
	c-2.092-6.213,1.558-11.416,3.036-16.991c0.456-1.723,1.295-3.344,1.958-5.011C107.843,131.332,107.845,131.668,107.846,132.004z"/>
<path fill-rule="evenodd" clip-rule="evenodd" fill="#4E4E4E" d="M156.846,209.001c-2.221,2.501-3.106,6.005-6.002,7.999
	c2.023-7.155,7.109-13.63,6.266-21.353c-1.326-12.14,4.134-23.202,4.748-34.798c0.63-11.873,4.277-23.121,5-34.858
	c2.057,2.172,2.14,4.814,1.539,7.473c-3.766,16.646-3.3,33.924-7.806,50.503c-1.571,5.784,0.518,12.146-1.097,18.217
	C158.85,204.607,158.523,207.028,156.846,209.001z"/>
<path fill-rule="evenodd" clip-rule="evenodd" fill="#515151" d="M175.461,206.063c2.172,0.095,4.478,0.044,5.516,2.474
	c1.023,2.396-0.327,4.223-1.975,5.685c-2.227,1.974-4.589,3.806-6.987,5.571c-1.974,1.452-4.212,2.5-6.144,0.062
	c-1.787-2.256-3.286-4.849-1.229-7.696C167.278,208.509,170.713,206.07,175.461,206.063z"/>
<path fill-rule="evenodd" clip-rule="evenodd" fill="#454545" d="M191.84,247.989c-3.904,1.823-5.51,5.117-5.791,9.199
	c-0.753,10.967-3.189,21.669-5.598,32.324c-1.26,5.575-3.579,11.062-7.607,15.491c-0.003-1.008-0.006-2.016-0.009-3.023
	c4.187-10.052,6.843-20.532,8.981-31.183c0.522-2.599,1.048-5.146,1.042-7.792c2.42-3.021,1.606-6.891,2.701-10.253
	C186.533,249.764,187.417,246.499,191.84,247.989z"/>
<path fill-rule="evenodd" clip-rule="evenodd" fill="#454545" d="M153.846,320c0.666-0.333,1.332-0.666,1.998-1
	c-0.145,2.265-3.135,5.141-0.152,6.591c2.693,1.309,5.055-1.421,7.028-3.469c3.219-3.34,4.289-8.236,8.116-11.124
	c2.392,2.101-0.294,3.537-0.848,5.114c-0.628,1.787-2.244,3.149-3.145,4.888c-1.307,2.639-2.596,5.328-3.307,8.157
	c-0.636,2.532-1.935,3.165-4.176,2.535c-3.135-0.882-6.183-1.438-9.433-0.143c-0.47,0.188-3.082,0.957-3.628-1.304
	c-0.337-1.396,0.28-2.25,1.068-3.431C149.163,324.129,151.585,322.168,153.846,320z"/>
<path fill-rule="evenodd" clip-rule="evenodd" fill="#454545" d="M166.854,288.994c0.247-6.683-0.357-13.235-2.098-19.745
	c-1.336-5.003-1.566-10.178,0.087-15.252c-0.354,6.396,0.655,12.486,2.841,18.587C169.602,277.939,169.949,283.67,166.854,288.994z"
	/>
<path fill-rule="evenodd" clip-rule="evenodd" fill="#4E4E4E" d="M166.844,321c0.578-3.635,2.869-6.586,3.992-10.002
	c0.353-1.328,0.705-2.656,1.058-3.983c2.184,5.079-0.233,9.079-3.048,12.984C168.179,320.333,167.512,320.666,166.844,321z"/>
<path fill-rule="evenodd" clip-rule="evenodd" fill="#3E3E3E" d="M77.838,146.997c-0.82,3.579-3.453,5.881-5.841,8.378
	c-6.355,6.646-5.768,10.14,2.43,14.123c2.06,1.001,4.272,1.685,6.416,2.515c1.523,2.232,3.585,3.822,5.989,5.001
	c1.756,1.486,1.41,3.267,0.829,5.166c-0.676,2.212-2.764,4.287-0.823,6.822c0.003,0.333,0.006,0.665,0.008,0.997
	c1.432,4.563,5.27,7.379,7.994,11.004c1.28,2.56,2.672,5.078,3,7.996c-1.091,1.84-0.012,3.947-0.692,5.812
	c-0.707,1.939-0.87,4.582-3.023,5.256c-2.092,0.654-2.799-2.06-4.282-3.064l0,0c-5.071-3.064-10.599-5.314-14.8-9.864
	c-2.043-2.213-4.681-4.437-8.018-4.803c-1.727-0.189-3.723-1.199-5.206,0.656c-1.533,1.915-0.824,3.906,0.021,5.822
	c1.153,2.616,3.684,4.878,2.003,8.184c-1,0.001-1.999,0.001-2.998,0.001c0.051-4.435-0.8-8.587-3.676-12.145
	c-2.582-3.193-1.182-5.508,2.115-6.375c5.078-1.335,7.132-3.464,4.658-8.844c-1.488-3.237,0.547-4.189,3.606-3.343
	c3.38,0.937,6.554,2.334,9.669,3.947c5.238,2.714,6.368,1.93,6.469-3.755c0.134-7.509-2.883-12.622-10.171-15.307
	c-5.458-2.01-8.531-6.162-8.673-12.181c1.664-2.002,3.328-4.004,4.992-6.006C73.272,152.022,74.849,148.566,77.838,146.997z"/>
<path fill-rule="evenodd" clip-rule="evenodd" fill="#2D2D2D" d="M64.844,247.001c4.333-0.001,8.666-0.001,13-0.002
	C73.511,250.119,69.177,248.521,64.844,247.001z"/>
<path fill-rule="evenodd" clip-rule="evenodd" fill="#3E3E3E" d="M60.844,216.999c-1.119,1.074-2.378,1.559-4.001,1.482
	c-5.692-0.27-6.319,0.804-4.003,6.521c2.13,9.285,4.548,9.915,14.459,9.836c6.682-0.054,10.897-4.401,16.545-5.84
	c0.333-0.333,0.667-0.665,1-0.998c3.562-0.483,7.398-2.335,9.995,2.003c0.004,0.664,0.008,1.328,0.013,1.991
	c0.343,0.571,0.146-0.246,0.307,0.38c1.44,5.621,4.319,10.053,9.128,13.608c2.742,2.028,1.75,6.544-1.252,8.764
	c-2.018,1.491-4.121,2.854-6.384,4.021c-5.206,2.688-6.238,5.553-4.605,11.535c1.37,5.02-0.251,8.087-5.323,9.48
	c-5.648,1.552-8.824,5.145-10.412,10.74c-1.402,4.938-2.722,9.746-2.387,14.994c0.383,6.021-5.227,7.008-8.967,9.05
	c-2.926,1.598-6.599,1.809-10.087,1.391c-0.601-0.049-1.135-0.236-1.592-0.631c-0.487-0.943-0.098-1.666,0.571-2.32
	c0.664-0.004,1.328-0.008,1.991-0.012c3.129-1.784,6.062-3.975,8.74-6.258c2.786-2.375,3.131-6.459,4.288-9.935
	c3.479-10.449,5.504-21.35,12.809-30.437c4.151-5.164,8.614-9.498,13.956-13.217c4.078-2.838,3.865-4.062-0.129-6.266
	c-4.341-2.396-5.745-5.009-3.931-10.039c1.764-4.889-0.984-6.955-6.729-5.847c-2.597,2.218-3.842,5.321-5.491,8.186
	c-4.08,7.086-8.866,7.901-15.503,3.397c-6.522-4.426-11.929-9.537-15.438-16.831c-2.935-6.099-2.039-9.545,4.428-11.749
	C55.507,215.001,58.176,216,60.844,216.999z"/>
<path fill-rule="evenodd" clip-rule="evenodd" fill="#3A3A3A" d="M84.844,230.999c5.075-1.807,8.242,0.048,7.587,5.084
	c-0.595,4.578,0.628,7.408,4.496,9.969c4.489,2.972,4.133,5.268-0.358,8.103c-5.245,3.312-10.069,7.024-12.525,13.058
	c-1.143,2.808-3.672,4.647-5.437,7.044c-6.053,8.219-6.59,18.294-9.698,27.459c-2.308,6.804-6.589,9.981-13.068,11.281
	c2.174-2.937,4.303-5.878,7.412-7.989c2.338-1.586,3.01-4.258,3.797-6.823c2.09-6.807,4.05-13.664,6.443-20.365
	c3.61-10.107,9.483-18.462,19.025-24.048c4.588-2.687,4.521-4.218,0.207-7.057c-3.248-2.138-3.527-4.7-2.69-8.157
	C91.388,232.965,90.482,231.865,84.844,230.999z"/>
<path fill-rule="evenodd" clip-rule="evenodd" fill="#424242" d="M52.844,316.996c-2.907,0.43-4.572,2.1-5.002,5.006
	c-4.396-4.041-8.714-2.337-13.251-0.091c-7.326,3.627-9.999,2.188-11.756-5.897c0.005-0.343,0.011-0.685,0.017-1.027
	c1.976-1.693,3.345-0.437,4.226,1.163c1.402,2.545,2.844,3.997,5.895,2.196c2.853-1.683,5.743-3.069,4.677-7.278
	c-0.537-2.119-1.947-4.585,1.191-6.055c0.004-0.346,0.008-0.691,0.012-1.037c0.662,1.009,1.324,2.019,1.986,3.028
	c2.598,3.921,4.781,8.448,10.877,7.003c0.77-0.183,1.523,0.423,2.129,0.987l-0.002,0.011
	C54.782,316.307,53.349,316.419,52.844,316.996z"/>
<path fill-rule="evenodd" clip-rule="evenodd" fill="#3A3A3A" d="M53.844,314.994c-9.757,0.373-10.622-0.159-13.006-7.99
	c3.744,3.286,7.314,6.948,13.011,6.003C53.847,313.67,53.846,314.332,53.844,314.994z"/>
<path fill-rule="evenodd" clip-rule="evenodd" fill="#282828" d="M54.331,335.938c-0.139,2.541-1.959,3.18-4.112,2.229
	c-5.233-2.309-9.479-6.128-13.78-9.79c-1.404-1.196-0.832-2.806,0.24-4.02c1.591-1.801,3.458-3.197,6.082-2.679
	C44.324,321.987,54.226,334.021,54.331,335.938z"/>
<path fill-rule="evenodd" clip-rule="evenodd" fill="#4D4D4D" d="M38.84,305.013c0.28,1.62,0.2,3.422,0.912,4.822
	c1.828,3.596,0.448,5.88-2.408,8.02c-6.892,5.162-7.568,5.066-14.492-2.868c0.083-3.451-1.48-6.452-2.616-9.571
	c-2.76-7.582-3.15-15.296-1.048-23.08c0.593-2.196,1.063-4.998,3.851-5.276c2.596-0.258,3.267,2.434,4.38,4.215
	c3.643,5.827,5.567,12.427,8.345,18.645C36.577,301.742,37.33,303.606,38.84,305.013z"/>
<path fill-rule="evenodd" clip-rule="evenodd" fill="#585858" d="M214.847,427.992c3.964,1.85,6.074,5.346,7.997,9.008
	c-1.666-1.333-3.332-2.667-4.998-4C216.847,431.331,215.847,429.661,214.847,427.992z"/>
<path fill-rule="evenodd" clip-rule="evenodd" fill="#555555" d="M235.844,280.999"/>
<path fill-rule="evenodd" clip-rule="evenodd" fill="#555555" d="M225.822,276.533c-1.167-0.542-1.971-1.833-3.468-1.689
	c-0.598,4.068,2.636,11.289,5.896,13.017"/>
<path fill-rule="evenodd" clip-rule="evenodd" fill="#555555" d="M220.071,333.932c-0.171-0.632,0.062-1.481-0.278-1.944
	c-5.67-7.683-3.464-17.45-6.867-25.738c-2.017-4.912-0.777-10.158-1.082-15.249c0-2,0-4,0-6c-0.708-3.863-1.045-7.76-0.669-11.673
	c0.377-3.918-0.265-7.475-2.689-10.715c-1.299-1.737-3.603-3.055-3.008-5.805c2.739-2.634,6.706-3.278,8.927-0.727
	c3.627,4.167,7.86,7.891,10.433,12.92"/>
<path fill-rule="evenodd" clip-rule="evenodd" fill="#555555" d="M228.431,297.993c-3.684-4.139-5.927-9.203-8.733-13.906
	c-0.875-1.466-1.196-4.082-3.542-3.382c-1.847,0.552-1.308,2.878-1.26,4.455c0.21,6.943,0.342,13.729,3.825,20.297
	c2.33,4.396,2.755,9.924,3.531,14.912"/>
<path fill-rule="evenodd" clip-rule="evenodd" fill="#575757" d="M205.844,256.999c1.007,1.491,1.834,3.153,3.055,4.442
	c3.329,3.515,4.162,7.623,3.663,12.278c-0.4,3.743-0.49,7.519-0.718,11.28c-0.335-0.335-0.669-0.669-1.004-1.004
	c-0.174-9.557-1.66-18.773-7.01-26.986c0.34-0.004,0.68-0.009,1.019-0.014C205.182,256.614,205.513,256.633,205.844,256.999z"/>
<path fill-rule="evenodd" clip-rule="evenodd" fill="#4F4F4F" d="M224.837,269.001c-3.937-2.497-7.897-4.994-10.521-8.995
	c-2.1-3.201-5.312-2.958-8.472-3.007c-0.332-0.001-0.663-0.002-0.995-0.003c-1.845-3.489-6.714-3.947-8.009-7.988
	c5.002,1.601,8.113,0.329,9.618-5.187c1.158-4.246,5.801-5.764,11.745-4.578c4.098,0.817,6.163,3.213,6.29,7.61
	c0.104,3.607,0.138,6.914-1.093,10.539"/>
<path fill-rule="evenodd" clip-rule="evenodd" fill="#444444" d="M152.93,353.997c8.125,2.784,16.35,5.321,24.32,8.496
	c2.595,1.034,5.474,3.681,4.136,7.056c-1.317,3.325-4.839,3.149-7.824,2.405c-8.227-2.051-15.507-6.579-23.533-9.225
	c-2.359-0.778-3.445-3.2-2.576-5.78C148.301,354.429,150.524,354.234,152.93,353.997z"/>
<path fill-rule="evenodd" clip-rule="evenodd" fill="#616161" d="M94.852,168.006c0.827-4.655-0.888-7.963-4.931-10.471
	c-3.805-2.359-4.605-9.376-1.795-12.846c1.566-1.936,3.128-1.76,4.438,0.184c1.766,2.622,4.028,5.142,4.941,8.061
	c2.804,8.972,10.776,13.224,16.749,19.288c1.673,1.699,3.916,2.88,6.364,1.876c5.91-2.424,12.25-3.011,18.357-4.576
	c2.774-0.712,5.321-1.838,7.656-3.526c1.979-1.43,4.218-2.333,6.447-0.629c2.287,1.747,3.247,4.171,2.637,7.071
	c-0.451,2.148-1.245,4.193-2.736,5.813c-2.955,3.211-3.054,6.664-1.709,10.652c3.435,10.194-0.933,25.885-9.307,32.476
	c-3.558,2.801-7.655,4.358-12.354,1.205c-6.321-4.241-13.49-4.877-20.57-2.381c-4.578,1.615-6.297-1.019-5.447-4.046
	c2.488-8.868-0.984-16.19-4.635-23.636c-0.892-1.817-0.412-3.43,0.111-5.263c1.679-5.872,0.971-11.229-4.217-15.275
	C92.743,170.658,93.077,169.332,94.852,168.006z"/>
<path fill-rule="evenodd" clip-rule="evenodd" fill="#555555" d="M94.852,168.006c0,1.326,0,2.652,0,3.979
	c1.055,5.114,1.347,9.992-1.571,14.858c-1.963,3.274-0.307,6.646,2.447,8.846c4.37,3.49,5.7,8.391,5.586,13.288
	c-0.113,4.833,0.926,9.521,0.721,14.332c-0.207,4.869,1.876,6.163,6.144,3.862c3.746-2.021,7.618-3.131,11.812-3.502
	c3.211-0.285,4.945,0.601,5.206,4.208c0.359,4.982,1.918,5.564,6.389,3.09c2.019-1.117,4.175-1.982,6.27-2.963
	c-5.02,6.617-10.692,11.177-19.498,6.447c-1.623-0.871-3.221,0.096-4.81,0.566c-9.269,2.749-16.445-3.41-15.063-12.841
	c0.53-3.617,1.007-7.249,1.315-10.891c0.476-5.603-1.11-10.347-5.38-14.372c-4.027-3.796-7.021-8.054-2.724-13.919
	c2-2.73,0.56-5.542-2.206-7.192c-2.701-1.611-5.466-3.205-8.629-3.83c-0.002-0.325-0.004-0.65-0.005-0.976
	c2.632-0.089,5.221-0.021,6.896-2.775C90.973,162.925,91.046,162.97,94.852,168.006z"/>
<path fill-rule="evenodd" clip-rule="evenodd" fill="#636363" d="M164.72,127.847c0.031,2.03-0.411,3.952-1.288,5.784
	c-2.957,6.179-5.439,6.308-9.724,1.197c-4.469-5.33-7.738-11.64-13.203-16.148c-1.078-0.89-1.922-1.993-1.235-3.453
	c0.781-1.664,2.326-1.806,3.851-1.356c2.903,0.854,5.863,1.368,8.857,1.111C160.97,114.209,163.25,118.554,164.72,127.847z"/>
<path fill-rule="evenodd" clip-rule="evenodd" fill="#4C4C4C" d="M102.847,152.998c0.9,0.979,1.828,1.935,2.697,2.941
	c7.334,8.497,8.942,8.923,19.156,4.635c2.262-0.949,4.448-1.221,6.797-0.528c3.971,1.171,7.998,1.078,10.292-2.691
	c2.315-3.803,2.812-8.215,0.272-12.352c-1.216-1.981-2.694-3.799-3.992-5.732c-0.573-0.854-0.866-1.86-0.163-2.785
	c0.592-0.781,1.467-0.581,2.302-0.426c1.995,0.37,4.324,2.326,5.888-0.165c1.552-2.473-0.132-4.738-1.577-6.842
	c-0.654-0.952-1.119-2.034-1.671-3.058c3.44,2.561,6.233,5.768,8.996,9.005c1.107,4.392,1.422,8.32-2.955,11.613
	c-1.83,1.377-1.801,4.526-1.948,7.091c-0.413,7.204-5.657,12.65-12.919,12.826c-4.641,0.113-9.027,0.615-13.309,2.488
	c-2.55,1.115-5.18,0.588-7.326-1.219c-1.868-1.572-3.398-3.54-5.543-4.8c-1.82-1.277-3.033-3.042-4.002-5.001
	c-0.759-1.578-3.082-2.839-1.01-4.99L102.847,152.998z"/>
<path fill-rule="evenodd" clip-rule="evenodd" fill="#555555" d="M107.844,163c2.043,0.421,3.543,1.786,5.143,2.974
	c2.317,1.721,4.897,2.224,7.557,1.172c4.098-1.62,8.355-1.976,12.686-2.38c8.857-0.826,12.269-4.599,12.571-13.607
	c0.112-3.332,0.71-6.172,3.617-8.289c2.658-1.936,1.644-5.229,2.427-7.869c2.617,4.537,2.523,8.802-1.048,12.891
	c-1.552,1.775-2.324,4.001-2.753,6.347c-1.521,8.306-5.781,12.402-14.084,13.641c-2.633,0.394-5.494,0.28-7.853,1.311
	C117.973,172.742,112.347,169.729,107.844,163z"/>
<path fill-rule="evenodd" clip-rule="evenodd" fill="#555555" d="M102.832,153.009c0.336,1.664,0.673,3.327,1.01,4.991
	c-5.839-4.928-6.389-12.088-7.812-18.83c-0.423-2.003,1.456-3.216,2.682-4.539c2.169-2.343,4.404-4.67,3.596-8.268
	c-0.238-1.059-1.099-1.815-2.213-1.562c-3.724,0.85-4.508,4.021-5.354,7.094c-0.4,1.456-0.725,3.148-2.042,3.89
	c-5.476,3.081-8.296,8.469-11.865,13.213c0.668-5.033,2.985-9.141,7.138-12.062c4.188-2.947,5.31-7.931,8.154-11.751
	c1.495-2.007,2.752-5.744,5.648-4.459c2.707,1.201,3.372,4.944,2.575,7.967c-1.093,4.145-1.641,8.406-3.416,12.434
	C99.126,145.226,99.037,149.558,102.832,153.009z"/>
<path fill-rule="evenodd" clip-rule="evenodd" fill="#616161" d="M79.844,169c-1.328-0.34-2.656-0.681-3.984-1.021
	c-2.326-6.204-1.018-9.176,4.818-10.942c3.755-1.136,5.658,0.41,5.611,4.306C86.236,165.741,85.4,169.312,79.844,169z"/>
<path fill-rule="evenodd" clip-rule="evenodd" fill="#4E4E4E" d="M150.844,217c0.256,4.933-1.387,8.204-7,8
	C146.154,222.313,147.503,218.785,150.844,217z"/>
<path fill-rule="evenodd" clip-rule="evenodd" fill="#434343" d="M52.844,316.996c0.332-0.664,0.665-1.327,0.998-1.991
	c4.296,0.286,8.218-0.981,11.945-2.955c3.771-1.996,5.746-4.853,6.237-9.413c0.6-5.556,1.895-11.172,3.844-16.407
	c1.807-4.851,4.996-9.092,10.912-9.829c2.712-0.338,3.247-2.343,2.758-4.401c-1.848-7.769,2.233-12.064,8.306-15.748
	c6.745-4.092,7.047-7.452,1.016-12.112c-4.316-3.335-4.014-7.663-4.009-12.144c2.013,0.834,2.922,2.588,3.793,4.423
	c2.358,4.968,6.203,7.617,11.823,7.617c1.76,0,4.082-0.418,4.848,1.652c0.812,2.194-0.968,3.921-2.553,4.979
	c-4.688,3.132-9.522,6.056-14.396,8.896c-5.088,2.966-5.989,4.982-4.277,10.585c0.292,0.954,0.583,1.908,0.856,2.867
	c2.045,7.174,0.791,9.245-6.439,10.652c-7.974,1.551-11.91,5.94-12.564,14.037c-0.08,0.993-0.075,1.994-0.089,2.992
	c-0.162,11.822-4.078,15.813-16.022,16.261C57.503,317.044,55.172,316.986,52.844,316.996z"/>
<path fill-rule="evenodd" clip-rule="evenodd" fill="#515151" d="M62.837,230.905c-2.616-0.021-5.124-0.316-5.874-3.435
	c-0.778-3.235,0.942-5.149,3.775-6.07c4.556-1.482,6.222-4.634,5.875-9.189c-0.113-1.492-0.287-3.188,1.479-3.862
	c1.671-0.638,3.015,0.418,3.84,1.661c2.847,4.29,7.018,6.444,11.754,7.9c1.795,0.552,3.385,1.659,3.511,3.79
	c0.133,2.234-1.666,3.063-3.268,3.975C77.942,229.08,70.452,230.938,62.837,230.905z"/>
<path fill-rule="evenodd" clip-rule="evenodd" fill="#434343" d="M83.844,228.999c-5.663,6.237-12.873,8.225-21.018,7.667
	c-6.707-0.459-9.594-3.821-9.986-11.663c3.59,10.188,9.989,10.04,21.473,6.6C77.476,230.654,80.391,228.887,83.844,228.999z"/>
<path fill-rule="evenodd" clip-rule="evenodd" fill="#434343" d="M63.842,216.998c-0.023-2.926-1.442-5.379-2.593-7.946
	c-0.95-2.122-1.933-4.513-0.054-6.524c1.921-2.057,4.56-1.582,7.017-1.077c2.022,0.415,3.454,1.896,5.035,3.081
	c5.537,4.149,11.063,8.312,16.595,12.472c-5.751-1.079-10.404-4.156-14.552-8.093c-1.939-1.842-3.886-3.628-6.522-4.392
	c-1.863-0.541-3.87-1.701-5.551,0.167c-1.452,1.612-0.643,3.457,0.078,5.141C64.298,212.17,65.04,214.502,63.842,216.998z"/>
<path fill-rule="evenodd" clip-rule="evenodd" fill="#434343" d="M89.842,217.003c4.124,2.057,6.004,0.164,6.803-3.8
	c0.287-1.424,0.79-2.804,1.195-4.204c-0.166,2.476-0.098,4.997-0.566,7.414c-0.429,2.207-0.921,5.11-3.718,5.244
	C90.928,221.783,90.614,218.962,89.842,217.003z"/>
<path fill-rule="evenodd" clip-rule="evenodd" fill="#434343" d="M86.838,189.002c-3.283-3.994,0.401-7.992-0.006-11.988
	c2.717,1.244,2.894,3.316,1.988,5.832C88.091,184.873,87.494,186.948,86.838,189.002z"/>
<path fill-rule="evenodd" clip-rule="evenodd" fill="#434343" d="M94.84,201.003c-3.616-2.977-7.384-5.844-7.994-11.004
	C89.626,193.583,92.756,196.913,94.84,201.003z"/>
<path fill-rule="evenodd" clip-rule="evenodd" fill="#434343" d="M94.839,230.004c-3.176-1.444-6.484-2.228-9.995-2.003
	C88.449,227.303,92.646,223.654,94.839,230.004z"/>
<path fill-rule="evenodd" clip-rule="evenodd" fill="#5B5B5B" d="M159.842,309.995c-8.579,8.929-19.521,14.788-29.078,22.424
	c-7.504,5.996-17.049,7.244-25.032,11.978c-5,2.965-10.103,5.756-15.176,8.596c-3.493,1.956-6.549,1.912-9.132-1.696
	c-1.664-2.325-4.216-3.737-6.58-5.295c-6.28-3.58-9.868-10.24-16.054-14.014c-1.311-0.799-2.593-2.028-3.94-2.995l0.001-0.002
	c-0.297-0.778-0.604-1.552-0.889-2.335c-0.574-1.588-1.255-3.269,0.347-4.601c1.481-1.231,3.245-0.847,4.711-0.012
	c5.548,3.161,11.318,2.951,17.447,2.146c6.463-0.85,11.424-4.378,16.617-7.611c2.902-1.808,3.023-4.86,1.901-7.592
	c-2.45-5.959-0.548-10.402,4.328-13.846c6.291-4.443,8.771-10.454,8.669-18.036c-0.082-6.05,3.882-10.055,8.289-13.561
	c1.298-1.033,3.248-1.562,4.053-2.852c7.394-11.844,21.653-16.393,29.407-27.861c1.509-2.231,3.552-4.876,6.878-4.118
	c3.562,0.811,4.906,3.979,5.484,7.111c1.167,6.32,2.92,12.683-1.231,18.827c-1.561,2.311-1.835,5.4-1.371,8.248
	c0.806,4.942,1.64,9.84,0.776,14.882c-0.18,1.051,0.145,2.433,0.737,3.333c3.986,6.052,3.241,12.264,1.118,18.688
	C161.033,303.1,159.751,306.409,159.842,309.995z"/>
<path fill-rule="evenodd" clip-rule="evenodd" fill="#464646" d="M102.844,349.977c1.733,0.027,3.944-1.088,4.957,0.93
	c1.002,1.997-0.689,3.626-2.033,4.916c-4.53,4.351-10.26,7.161-16.361,8.581c-8.322,1.937-11.244,7.565-13.147,14.272
	c-2.188,7.712-0.908,15.859-3.36,23.568c-2.429,7.637-5.891,14.824-10.053,21.743c0.776-5.062-1.692-9.251-4.063-13.493
	c-2.88-5.153-3.739-10.758-3.938-16.487c2.916,3.019,1.592,7.253,3.458,10.58c0.599,1.067,0.574,2.727,2.129,2.913
	c1.799,0.217,2.407-1.425,3.185-2.573c1.177-1.74,1.904-3.65,1.819-5.744c-0.304-7.518,1.912-14.835,2.066-22.297
	c0.196-9.495,7.321-14.371,14.871-17.69c5.679-2.494,11.392-4.838,16.766-7.901C100.248,350.662,101.603,350.406,102.844,349.977z"
	/>
<path fill-rule="evenodd" clip-rule="evenodd" fill="#585858" d="M66.292,376.938c-1.751,6.515-1.141,14.139-2.884,21.441
	c-0.398,1.671-0.129,4.282-2.457,4.347c-2.546,0.071-2.809-2.591-3.071-4.46c-1.017-7.243-2.609-14.343-4.245-21.469
	c-1.438-6.264-4.583-11.696-6.831-17.55c-0.772-2.014-1.798-3.938-2.463-5.983c-0.692-2.13-2.609-5.041-0.396-6.416
	c2.46-1.528,4.863,1.31,5.907,3.225c4.171,7.652,9.989,14.03,15.219,20.867C66.212,372.433,66.559,374.262,66.292,376.938z"/>
<path fill-rule="evenodd" clip-rule="evenodd" fill="#4E4E4E" d="M153.846,320c-0.688,2.095-2.236,3.6-3.567,5.263
	c-0.809,1.009-1.844,2.122-0.966,3.515c0.719,1.141,2.078,0.572,3.147,0.809c7.544,1.67,11.253-2.945,14.384-8.586
	c-0.368,1.78-0.638,3.587-1.122,5.335c-2.206,7.976-2.188,7.724-10.327,6.394c-6.382-1.042-10.607,2.779-13.935,7.677
	c-2.894,4.26-7.923,4.047-10.361-0.508c-0.997-1.86-0.321-3.42,1.247-4.251c6.833-3.625,12.212-9.038,17.912-14.079
	C151.188,320.745,152.637,320.508,153.846,320z"/>
<path fill-rule="evenodd" clip-rule="evenodd" fill="#4E4E4E" d="M54.85,328.992c4.509,1.105,8.021,4.133,10.984,7.225
	c3.047,3.178,6.195,6.352,9.01,9.784c-0.001,0.669-0.002,1.339-0.004,2.008C68.428,341.406,60.736,336.147,54.85,328.992z"/>
<path fill-rule="evenodd" clip-rule="evenodd" fill="#2D2D2D" d="M120.328,118.142c4.609,0.768,9.542,2.788,14,5.673
	c3.39,2.193,2.666,5.607-1.149,7.041c-7.202,2.706-7.556,4.263-2.25,9.738c2.302,2.376,4.972,4.465,6.374,7.577
	c1.327,2.942,0.251,5.032-2.903,4.204c-5.726-1.503-10.696-0.325-15.72,2.356c-2.597,1.387-5.495,1.373-7.891-0.864
	c-2.212-2.066-0.998-4.466-0.885-6.933c0.371-8.121,3.325-15.803,3.756-23.865C113.877,119.018,116.178,118.048,120.328,118.142z"/>
<path fill-rule="evenodd" clip-rule="evenodd" fill="#343434" d="M94.691,209.117c-0.101,2.016-0.64,3.976-3.664,3.831
	c-3.957-0.188-8.623-4.211-8.771-7.668c-0.123-2.892,1.487-4.327,4.209-4.493C90.03,200.57,94.669,205.145,94.691,209.117z"/>
<path fill-rule="evenodd" clip-rule="evenodd" fill="#4F4F4F" d="M12.857,336.99c-1.34,0.005-2.679,0.009-4.019,0.014
	c-1.385-0.978-2.329-2.174-1.991-4.007C9.505,333.345,11.377,334.873,12.857,336.99z"/>
<path fill-rule="evenodd" clip-rule="evenodd" fill="#5A5A5A" d="M20.973,294.99c0-0.172-0.094-1.341,0.021-2.488
	c0.201-2.023,0.549-4.144,2.981-4.61c2.196-0.421,3.055,1.474,4.235,2.859c4.753,5.578,5.717,12.521,7.057,19.318
	c0.475,2.412,0.127,4.821-2.467,5.899c-2.62,1.09-4.207-0.885-5.147-2.762C24.882,307.679,20.173,302.873,20.973,294.99z"/>
<path fill-rule="evenodd" clip-rule="evenodd" fill="#717171" d="M188.215,300.141c-0.738-8.396,2.562-16.306,2.891-24.624
	c0.165-4.169-0.453-8.283-0.176-12.423c0.148-2.212,0.469-4.437,2.915-5.305c2.228-0.79,3.81,0.618,5.256,2.03
	c6.703,6.544,9.382,14.601,7.261,23.604c-1.892,8.029-4.255,16.05-8.718,23.172c-1.272,2.031-2.381,4.984-5.447,4.204
	c-3.146-0.8-4.098-3.572-3.989-6.68C188.253,302.795,188.215,301.467,188.215,300.141z"/>
<path fill-rule="evenodd" clip-rule="evenodd" fill="#606060" d="M137.397,301.265c-6.383,3.068-11.901,2.608-17.354,2.639
	c-5.226,0.028-6.969-2.016-7.411-7.239c-0.931-11.01,3.228-20.362,8.896-29.35c3.535-5.607,6.358-11.724,12.1-15.619
	c0.817-0.556,1.391-1.727,2.243-1.937c7.992-1.962,11.191-8.545,14.957-14.809c2.409-4.006,5.27-3.651,7.362,0.495
	c2.481,4.919,1.381,9.859-0.797,14.43c-1.601,3.358-1.59,6.37-1.16,10.019c1.587,13.456,1.182,23.341-13.091,29.237
	c-3.122,1.289-4.569,3.631-4.425,7.067c0.14,3.299,2.207,4.44,4.983,5.325c3.226,1.026,5.862,3.608,9.858,2.397
	c2.361-0.716,2.94,1.51,2.702,3.584c-0.719,6.26-8.337,9.821-13.653,6.409c-0.978-0.628-2.036-1.128-3.046-1.709
	C134.113,309.069,133.774,307.963,137.397,301.265z"/>
<path fill-rule="evenodd" clip-rule="evenodd" fill="#636363" d="M89.397,349.703c-2.009,0.028-3.481-0.416-4.466-1.619
	c-2.572-3.145-5.866-5.346-9.238-7.48c-0.982-0.621-2.026-1.33-1.823-2.718c0.227-1.546,1.444-2.129,2.781-2.478
	c1.652-0.432,3.284-0.166,4.925,0.177c1.125,0.235,2.505,0.812,3.389,0.405c8.781-4.035,19.078-1.616,27.648-6.645
	c2.42-1.419,5.448-1.356,8.272-1.486c1.271-0.058,2.968-0.664,3.569,0.867c0.71,1.806-1.073,2.654-2.249,3.39
	c-4.771,2.984-9.873,5.367-14.619,8.454c-4.97,3.233-10.479,5.643-15.778,8.358C90.945,349.371,89.939,349.535,89.397,349.703z"/>
<path fill-rule="evenodd" clip-rule="evenodd" fill="#1B1B1B" d="M126.491,143.91c-0.076,2.9-1.851,4.014-4.862,3.814
	c-4.968-0.327-7.874-2.987-7.529-7.288c0.236-2.947,1.207-5.698,4.77-5.896C122.144,134.358,126.756,140.026,126.491,143.91z"/>
<path fill-rule="evenodd" clip-rule="evenodd" fill="#676767" d="M130.79,273.584c-1.029-5.181,1.43-8.729,4.917-11.537
	c3.349-2.697,7.277-4.592,10.151-8.002c1.822-2.163,3.485-0.767,4.768,1.153c6.914,10.356,3.468,23.479-7.462,29.162
	c-4.558,2.369-8.753,5.425-13.251,7.921c-2.345,1.302-5.255,2.354-7.37-0.146c-2.66-3.144-0.763-6.71,0.108-9.983
	c0.683-2.566,2.419-3.13,5.354-2.914C132.66,279.58,129.861,275.379,130.79,273.584z"/>
</svg>
